<?xml version="1.0" encoding="utf-8"?>
<svg xmlns="http://www.w3.org/2000/svg" xmlns:xlink="http://www.w3.org/1999/xlink" width="600" height="400" viewBox="0 0 2400 1600">
<defs>
  <clipPath id="clip550">
    <rect x="0" y="0" width="2400" height="1600"/>
  </clipPath>
</defs>
<path clip-path="url(#clip550)" d="
M0 1600 L2400 1600 L2400 0 L0 0  Z
  " fill="#ffffff" fill-rule="evenodd" fill-opacity="1"/>
<defs>
  <clipPath id="clip551">
    <rect x="480" y="0" width="1681" height="1600"/>
  </clipPath>
</defs>
<path clip-path="url(#clip550)" d="
M257.204 1423.18 L2352.76 1423.18 L2352.76 47.2441 L257.204 47.2441  Z
  " fill="#ffffff" fill-rule="evenodd" fill-opacity="1"/>
<defs>
  <clipPath id="clip552">
    <rect x="257" y="47" width="2097" height="1377"/>
  </clipPath>
</defs>
<polyline clip-path="url(#clip552)" style="stroke:#000000; stroke-linecap:butt; stroke-linejoin:round; stroke-width:2; stroke-opacity:0.1; fill:none" points="
  316.512,1423.18 316.512,47.2441 
  "/>
<polyline clip-path="url(#clip552)" style="stroke:#000000; stroke-linecap:butt; stroke-linejoin:round; stroke-width:2; stroke-opacity:0.1; fill:none" points="
  975.491,1423.18 975.491,47.2441 
  "/>
<polyline clip-path="url(#clip552)" style="stroke:#000000; stroke-linecap:butt; stroke-linejoin:round; stroke-width:2; stroke-opacity:0.1; fill:none" points="
  1634.47,1423.18 1634.47,47.2441 
  "/>
<polyline clip-path="url(#clip552)" style="stroke:#000000; stroke-linecap:butt; stroke-linejoin:round; stroke-width:2; stroke-opacity:0.1; fill:none" points="
  2293.45,1423.18 2293.45,47.2441 
  "/>
<polyline clip-path="url(#clip550)" style="stroke:#000000; stroke-linecap:butt; stroke-linejoin:round; stroke-width:4; stroke-opacity:1; fill:none" points="
  257.204,1423.18 2352.76,1423.18 
  "/>
<polyline clip-path="url(#clip550)" style="stroke:#000000; stroke-linecap:butt; stroke-linejoin:round; stroke-width:4; stroke-opacity:1; fill:none" points="
  316.512,1423.18 316.512,1404.28 
  "/>
<polyline clip-path="url(#clip550)" style="stroke:#000000; stroke-linecap:butt; stroke-linejoin:round; stroke-width:4; stroke-opacity:1; fill:none" points="
  975.491,1423.18 975.491,1404.28 
  "/>
<polyline clip-path="url(#clip550)" style="stroke:#000000; stroke-linecap:butt; stroke-linejoin:round; stroke-width:4; stroke-opacity:1; fill:none" points="
  1634.47,1423.18 1634.47,1404.28 
  "/>
<polyline clip-path="url(#clip550)" style="stroke:#000000; stroke-linecap:butt; stroke-linejoin:round; stroke-width:4; stroke-opacity:1; fill:none" points="
  2293.45,1423.18 2293.45,1404.28 
  "/>
<path clip-path="url(#clip550)" d="M291.697 1481.64 L299.336 1481.64 L299.336 1455.28 L291.026 1456.95 L291.026 1452.69 L299.29 1451.02 L303.966 1451.02 L303.966 1481.64 L311.605 1481.64 L311.605 1485.58 L291.697 1485.58 L291.697 1481.64 Z" fill="#000000" fill-rule="evenodd" fill-opacity="1" /><path clip-path="url(#clip550)" d="M321.095 1451.02 L339.452 1451.02 L339.452 1454.96 L325.378 1454.96 L325.378 1463.43 Q326.396 1463.08 327.415 1462.92 Q328.433 1462.73 329.452 1462.73 Q335.239 1462.73 338.618 1465.9 Q341.998 1469.08 341.998 1474.49 Q341.998 1480.07 338.526 1483.17 Q335.054 1486.25 328.734 1486.25 Q326.558 1486.25 324.29 1485.88 Q322.044 1485.51 319.637 1484.77 L319.637 1480.07 Q321.72 1481.2 323.943 1481.76 Q326.165 1482.32 328.642 1482.32 Q332.646 1482.32 334.984 1480.21 Q337.322 1478.1 337.322 1474.49 Q337.322 1470.88 334.984 1468.77 Q332.646 1466.67 328.642 1466.67 Q326.767 1466.67 324.892 1467.08 Q323.04 1467.5 321.095 1468.38 L321.095 1451.02 Z" fill="#000000" fill-rule="evenodd" fill-opacity="1" /><path clip-path="url(#clip550)" d="M954.264 1481.64 L970.583 1481.64 L970.583 1485.58 L948.639 1485.58 L948.639 1481.64 Q951.301 1478.89 955.884 1474.26 Q960.491 1469.61 961.671 1468.27 Q963.917 1465.74 964.796 1464.01 Q965.699 1462.25 965.699 1460.56 Q965.699 1457.8 963.755 1456.07 Q961.833 1454.33 958.732 1454.33 Q956.532 1454.33 954.079 1455.09 Q951.648 1455.86 948.87 1457.41 L948.87 1452.69 Q951.695 1451.55 954.148 1450.97 Q956.602 1450.39 958.639 1450.39 Q964.009 1450.39 967.204 1453.08 Q970.398 1455.77 970.398 1460.26 Q970.398 1462.39 969.588 1464.31 Q968.801 1466.2 966.694 1468.8 Q966.116 1469.47 963.014 1472.69 Q959.912 1475.88 954.264 1481.64 Z" fill="#000000" fill-rule="evenodd" fill-opacity="1" /><path clip-path="url(#clip550)" d="M990.398 1454.1 Q986.787 1454.1 984.958 1457.66 Q983.153 1461.2 983.153 1468.33 Q983.153 1475.44 984.958 1479.01 Q986.787 1482.55 990.398 1482.55 Q994.032 1482.55 995.838 1479.01 Q997.666 1475.44 997.666 1468.33 Q997.666 1461.2 995.838 1457.66 Q994.032 1454.1 990.398 1454.1 M990.398 1450.39 Q996.208 1450.39 999.264 1455 Q1002.34 1459.58 1002.34 1468.33 Q1002.34 1477.06 999.264 1481.67 Q996.208 1486.25 990.398 1486.25 Q984.588 1486.25 981.509 1481.67 Q978.454 1477.06 978.454 1468.33 Q978.454 1459.58 981.509 1455 Q984.588 1450.39 990.398 1450.39 Z" fill="#000000" fill-rule="evenodd" fill-opacity="1" /><path clip-path="url(#clip550)" d="M1613.74 1481.64 L1630.06 1481.64 L1630.06 1485.58 L1608.12 1485.58 L1608.12 1481.64 Q1610.78 1478.89 1615.36 1474.26 Q1619.97 1469.61 1621.15 1468.27 Q1623.39 1465.74 1624.27 1464.01 Q1625.18 1462.25 1625.18 1460.56 Q1625.18 1457.8 1623.23 1456.07 Q1621.31 1454.33 1618.21 1454.33 Q1616.01 1454.33 1613.56 1455.09 Q1611.12 1455.86 1608.35 1457.41 L1608.35 1452.69 Q1611.17 1451.55 1613.62 1450.97 Q1616.08 1450.39 1618.12 1450.39 Q1623.49 1450.39 1626.68 1453.08 Q1629.87 1455.77 1629.87 1460.26 Q1629.87 1462.39 1629.06 1464.31 Q1628.28 1466.2 1626.17 1468.8 Q1625.59 1469.47 1622.49 1472.69 Q1619.39 1475.88 1613.74 1481.64 Z" fill="#000000" fill-rule="evenodd" fill-opacity="1" /><path clip-path="url(#clip550)" d="M1639.92 1451.02 L1658.28 1451.02 L1658.28 1454.96 L1644.2 1454.96 L1644.2 1463.43 Q1645.22 1463.08 1646.24 1462.92 Q1647.26 1462.73 1648.28 1462.73 Q1654.06 1462.73 1657.44 1465.9 Q1660.82 1469.08 1660.82 1474.49 Q1660.82 1480.07 1657.35 1483.17 Q1653.88 1486.25 1647.56 1486.25 Q1645.38 1486.25 1643.12 1485.88 Q1640.87 1485.51 1638.46 1484.77 L1638.46 1480.07 Q1640.55 1481.2 1642.77 1481.76 Q1644.99 1482.32 1647.47 1482.32 Q1651.47 1482.32 1653.81 1480.21 Q1656.15 1478.1 1656.15 1474.49 Q1656.15 1470.88 1653.81 1468.77 Q1651.47 1466.67 1647.47 1466.67 Q1645.59 1466.67 1643.72 1467.08 Q1641.87 1467.5 1639.92 1468.38 L1639.92 1451.02 Z" fill="#000000" fill-rule="evenodd" fill-opacity="1" /><path clip-path="url(#clip550)" d="M2282.29 1466.95 Q2285.65 1467.66 2287.52 1469.93 Q2289.42 1472.2 2289.42 1475.53 Q2289.42 1480.65 2285.9 1483.45 Q2282.38 1486.25 2275.9 1486.25 Q2273.73 1486.25 2271.41 1485.81 Q2269.12 1485.39 2266.67 1484.54 L2266.67 1480.02 Q2268.61 1481.16 2270.92 1481.74 Q2273.24 1482.32 2275.76 1482.32 Q2280.16 1482.32 2282.45 1480.58 Q2284.77 1478.84 2284.77 1475.53 Q2284.77 1472.48 2282.61 1470.77 Q2280.48 1469.03 2276.67 1469.03 L2272.64 1469.03 L2272.64 1465.19 L2276.85 1465.19 Q2280.3 1465.19 2282.13 1463.82 Q2283.96 1462.43 2283.96 1459.84 Q2283.96 1457.18 2282.06 1455.77 Q2280.18 1454.33 2276.67 1454.33 Q2274.74 1454.33 2272.55 1454.75 Q2270.35 1455.16 2267.71 1456.04 L2267.71 1451.88 Q2270.37 1451.14 2272.68 1450.77 Q2275.02 1450.39 2277.08 1450.39 Q2282.41 1450.39 2285.51 1452.83 Q2288.61 1455.23 2288.61 1459.35 Q2288.61 1462.22 2286.97 1464.21 Q2285.32 1466.18 2282.29 1466.95 Z" fill="#000000" fill-rule="evenodd" fill-opacity="1" /><path clip-path="url(#clip550)" d="M2308.29 1454.1 Q2304.67 1454.1 2302.85 1457.66 Q2301.04 1461.2 2301.04 1468.33 Q2301.04 1475.44 2302.85 1479.01 Q2304.67 1482.55 2308.29 1482.55 Q2311.92 1482.55 2313.73 1479.01 Q2315.55 1475.44 2315.55 1468.33 Q2315.55 1461.2 2313.73 1457.66 Q2311.92 1454.1 2308.29 1454.1 M2308.29 1450.39 Q2314.1 1450.39 2317.15 1455 Q2320.23 1459.58 2320.23 1468.33 Q2320.23 1477.06 2317.15 1481.67 Q2314.1 1486.25 2308.29 1486.25 Q2302.48 1486.25 2299.4 1481.67 Q2296.34 1477.06 2296.34 1468.33 Q2296.34 1459.58 2299.4 1455 Q2302.48 1450.39 2308.29 1450.39 Z" fill="#000000" fill-rule="evenodd" fill-opacity="1" /><path clip-path="url(#clip550)" d="M1191.54 1509.5 Q1191.54 1510.43 1191.12 1510.63 Q1190.74 1510.82 1189.45 1510.82 Q1187.94 1510.82 1187 1510.95 Q1186.07 1511.04 1185.49 1511.21 Q1184.91 1511.33 1184.55 1511.79 Q1184.23 1512.24 1184.1 1512.62 Q1183.97 1512.98 1183.75 1513.85 L1174.99 1548.98 Q1174.67 1550.17 1174.67 1550.59 Q1174.67 1551.01 1174.92 1551.27 Q1175.21 1551.53 1175.92 1551.66 Q1176.63 1551.75 1177.18 1551.79 Q1177.76 1551.79 1178.95 1551.79 Q1180.43 1551.79 1180.66 1552.04 Q1180.79 1552.2 1180.79 1552.49 Q1180.79 1553.11 1180.53 1553.43 Q1180.27 1553.72 1180.05 1553.78 Q1179.85 1553.81 1179.53 1553.81 Q1178.18 1553.81 1175.41 1553.72 Q1172.64 1553.62 1171.29 1553.62 L1163.1 1553.81 Q1162.14 1553.81 1162.14 1553.01 Q1162.14 1552.4 1162.4 1552.14 Q1162.65 1551.85 1162.94 1551.82 Q1163.23 1551.79 1163.97 1551.79 Q1166.62 1551.79 1167.74 1551.5 Q1168.9 1551.21 1169.22 1550.69 Q1169.58 1550.14 1169.96 1548.66 L1179.4 1510.88 L1179.34 1510.88 L1152.7 1552.62 L1152.51 1552.91 Q1152.32 1553.17 1152.25 1553.27 Q1152.19 1553.33 1151.99 1553.52 Q1151.83 1553.69 1151.64 1553.75 Q1151.48 1553.81 1151.25 1553.81 Q1150.87 1553.81 1150.64 1553.56 Q1150.45 1553.3 1150.38 1553.11 Q1150.35 1552.88 1150.25 1552.3 L1144.59 1511.4 L1144.52 1511.4 L1135.54 1547.34 Q1135.28 1548.34 1135.28 1548.85 Q1135.28 1550.17 1136.21 1550.98 Q1137.18 1551.75 1139.76 1551.79 Q1140.95 1551.79 1140.95 1552.49 Q1140.95 1553.81 1139.76 1553.81 Q1138.66 1553.81 1136.37 1553.72 Q1134.09 1553.62 1132.96 1553.62 Q1131.87 1553.62 1129.64 1553.72 Q1127.45 1553.81 1126.39 1553.81 Q1125.46 1553.81 1125.46 1553.01 Q1125.46 1551.79 1126.65 1551.79 Q1128.58 1551.72 1129.9 1551.33 Q1131.22 1550.95 1131.96 1550.21 Q1132.73 1549.47 1133.09 1548.73 Q1133.48 1547.95 1133.77 1546.83 L1142.14 1513.23 Q1142.4 1512.17 1142.4 1512.01 Q1142.4 1511.46 1142.07 1511.27 Q1141.78 1511.04 1140.95 1510.95 Q1139.34 1510.82 1138.11 1510.82 Q1137.31 1510.82 1136.99 1510.79 Q1136.7 1510.75 1136.44 1510.59 Q1136.21 1510.4 1136.21 1510.01 Q1136.21 1509.4 1136.47 1509.14 Q1136.76 1508.85 1137.08 1508.82 Q1137.4 1508.76 1138.18 1508.76 L1147.23 1508.76 Q1148.55 1508.76 1148.84 1508.98 Q1149.13 1509.18 1149.26 1510.27 L1154.41 1547.6 L1178.5 1510.01 Q1179.11 1509.08 1179.43 1508.92 Q1179.76 1508.76 1181.04 1508.76 L1189.77 1508.76 Q1190.48 1508.76 1190.77 1508.79 Q1191.06 1508.82 1191.28 1508.98 Q1191.54 1509.14 1191.54 1509.5 Z" fill="#000000" fill-rule="evenodd" fill-opacity="1" /><path clip-path="url(#clip550)" d="M1197.95 1562.93 Q1197.95 1558.54 1201.02 1555.49 Q1204.08 1552.45 1208.23 1552.45 Q1211.75 1552.45 1214.05 1555.31 L1214.05 1545.33 Q1214.05 1543.61 1213.44 1543.18 Q1212.85 1542.76 1210.46 1542.76 L1210.46 1541.31 L1217.11 1540.82 L1217.11 1568.84 Q1217.11 1570.55 1217.7 1571 Q1218.31 1571.43 1220.7 1571.43 L1220.7 1572.85 L1213.91 1573.37 L1213.91 1570.3 Q1211.52 1573.35 1207.73 1573.37 Q1203.77 1573.37 1200.86 1570.33 Q1197.95 1567.28 1197.95 1562.93 M1201.78 1562.98 Q1201.78 1567.26 1203.11 1569.38 Q1204.96 1572.33 1207.96 1572.33 Q1211.39 1572.33 1213.41 1569.11 Q1213.93 1568.32 1213.91 1567.4 L1213.91 1557.93 Q1213.91 1557 1213.41 1556.24 Q1211.52 1553.46 1208.43 1553.46 Q1205.21 1553.46 1203.2 1556.42 Q1201.78 1558.63 1201.78 1562.98 Z" fill="#000000" fill-rule="evenodd" fill-opacity="1" /><path clip-path="url(#clip550)" d="M1226.36 1570.37 Q1223.31 1567.35 1223.31 1562.98 Q1223.31 1558.58 1226.29 1555.38 Q1229.29 1552.16 1233.57 1552.16 Q1237.77 1552.16 1240.76 1555.36 Q1243.78 1558.54 1243.78 1562.98 Q1243.78 1567.33 1240.74 1570.35 Q1237.72 1573.37 1233.53 1573.37 Q1229.42 1573.37 1226.36 1570.37 M1227.15 1562.59 Q1227.15 1567.08 1228.32 1569.11 Q1230.12 1572.2 1233.57 1572.2 Q1235.29 1572.2 1236.71 1571.27 Q1238.15 1570.35 1238.94 1568.79 Q1239.95 1566.76 1239.95 1562.59 Q1239.95 1558.15 1238.74 1556.19 Q1236.93 1553.19 1233.53 1553.19 Q1232.04 1553.19 1230.57 1553.98 Q1229.13 1554.75 1228.25 1556.28 Q1227.15 1558.31 1227.15 1562.59 Z" fill="#000000" fill-rule="evenodd" fill-opacity="1" /><path clip-path="url(#clip550)" d="M1245.26 1572.85 L1245.26 1571.43 Q1247.71 1571.43 1248.28 1571.14 Q1248.84 1570.82 1248.84 1569.33 L1248.84 1556.96 Q1248.84 1555.24 1248.23 1554.82 Q1247.65 1554.39 1245.26 1554.39 L1245.26 1552.95 L1251.75 1552.45 L1251.75 1557.3 Q1253.91 1552.45 1258.58 1552.45 Q1262.05 1552.45 1263.43 1554.16 Q1264.44 1555.31 1264.64 1556.6 Q1264.87 1557.88 1264.87 1561.22 L1264.87 1570.03 Q1264.91 1571 1265.66 1571.23 Q1266.4 1571.43 1268.48 1571.43 L1268.48 1572.85 Q1263.76 1572.72 1263.29 1572.72 Q1262.93 1572.72 1258.08 1572.85 L1258.08 1571.43 Q1260.54 1571.43 1261.1 1571.14 Q1261.69 1570.82 1261.69 1569.33 L1261.69 1558.58 Q1261.69 1556.24 1260.97 1554.86 Q1260.25 1553.46 1258.26 1553.46 Q1255.87 1553.46 1253.96 1555.47 Q1252.04 1557.48 1252.04 1560.86 L1252.04 1569.33 Q1252.04 1570.82 1252.61 1571.14 Q1253.19 1571.43 1255.63 1571.43 L1255.63 1572.85 Q1250.91 1572.72 1250.46 1572.72 Q1250.1 1572.72 1245.26 1572.85 Z" fill="#000000" fill-rule="evenodd" fill-opacity="1" /><path clip-path="url(#clip550)" d="M1274.77 1570.37 Q1271.73 1567.35 1271.73 1562.98 Q1271.73 1558.58 1274.71 1555.38 Q1277.7 1552.16 1281.99 1552.16 Q1286.18 1552.16 1289.18 1555.36 Q1292.2 1558.54 1292.2 1562.98 Q1292.2 1567.33 1289.16 1570.35 Q1286.14 1573.37 1281.94 1573.37 Q1277.84 1573.37 1274.77 1570.37 M1275.56 1562.59 Q1275.56 1567.08 1276.74 1569.11 Q1278.54 1572.2 1281.99 1572.2 Q1283.7 1572.2 1285.12 1571.27 Q1286.56 1570.35 1287.35 1568.79 Q1288.37 1566.76 1288.37 1562.59 Q1288.37 1558.15 1287.15 1556.19 Q1285.35 1553.19 1281.94 1553.19 Q1280.45 1553.19 1278.99 1553.98 Q1277.55 1554.75 1276.67 1556.28 Q1275.56 1558.31 1275.56 1562.59 Z" fill="#000000" fill-rule="evenodd" fill-opacity="1" /><path clip-path="url(#clip550)" d="M1293.67 1572.85 L1293.67 1571.43 Q1296.13 1571.43 1296.69 1571.14 Q1297.28 1570.82 1297.28 1569.33 L1297.28 1556.96 Q1297.28 1555.24 1296.67 1554.82 Q1296.08 1554.39 1293.67 1554.39 L1293.67 1552.95 L1300.1 1552.45 L1300.1 1557.52 Q1300.75 1555.54 1302.13 1554 Q1303.52 1552.45 1305.78 1552.45 Q1307.27 1552.45 1308.21 1553.28 Q1309.18 1554.12 1309.18 1555.27 Q1309.18 1556.28 1308.55 1556.8 Q1307.94 1557.3 1307.2 1557.3 Q1306.36 1557.3 1305.78 1556.78 Q1305.21 1556.24 1305.21 1555.31 Q1305.21 1554.75 1305.46 1554.32 Q1305.73 1553.87 1305.94 1553.71 Q1306.14 1553.55 1306.27 1553.51 Q1306.18 1553.46 1305.78 1553.46 Q1303.23 1553.46 1301.76 1556.01 Q1300.32 1558.54 1300.32 1562.14 L1300.32 1569.24 Q1300.32 1570.57 1300.86 1571 Q1301.43 1571.43 1303.84 1571.43 L1304.81 1571.43 L1304.81 1572.85 Q1302.96 1572.72 1298.95 1572.72 Q1298.38 1572.72 1297.5 1572.74 Q1296.62 1572.76 1295.47 1572.81 Q1294.32 1572.85 1293.67 1572.85 Z" fill="#000000" fill-rule="evenodd" fill-opacity="1" /><path clip-path="url(#clip550)" d="M1333.1 1570.3 L1333.1 1504.35 L1343.05 1504.35 L1343.05 1505.86 L1337.51 1505.86 L1337.51 1568.79 L1343.05 1568.79 L1343.05 1570.3 L1333.1 1570.3 Z" fill="#000000" fill-rule="evenodd" fill-opacity="1" /><path clip-path="url(#clip550)" d="M1417.34 1509.5 Q1417.34 1510.43 1416.92 1510.63 Q1416.53 1510.82 1415.24 1510.82 Q1413.73 1510.82 1412.8 1510.95 Q1411.86 1511.04 1411.28 1511.21 Q1410.7 1511.33 1410.35 1511.79 Q1410.03 1512.24 1409.9 1512.62 Q1409.77 1512.98 1409.54 1513.85 L1400.78 1548.98 Q1400.46 1550.17 1400.46 1550.59 Q1400.46 1551.01 1400.72 1551.27 Q1401.01 1551.53 1401.72 1551.66 Q1402.43 1551.75 1402.97 1551.79 Q1403.55 1551.79 1404.74 1551.79 Q1406.23 1551.79 1406.45 1552.04 Q1406.58 1552.2 1406.58 1552.49 Q1406.58 1553.11 1406.32 1553.43 Q1406.06 1553.72 1405.84 1553.78 Q1405.65 1553.81 1405.32 1553.81 Q1403.97 1553.81 1401.2 1553.72 Q1398.43 1553.62 1397.08 1553.62 L1388.9 1553.81 Q1387.93 1553.81 1387.93 1553.01 Q1387.93 1552.4 1388.19 1552.14 Q1388.45 1551.85 1388.74 1551.82 Q1389.03 1551.79 1389.77 1551.79 Q1392.41 1551.79 1393.54 1551.5 Q1394.7 1551.21 1395.02 1550.69 Q1395.37 1550.14 1395.76 1548.66 L1405.2 1510.88 L1405.13 1510.88 L1378.5 1552.62 L1378.3 1552.91 Q1378.11 1553.17 1378.05 1553.27 Q1377.98 1553.33 1377.79 1553.52 Q1377.63 1553.69 1377.43 1553.75 Q1377.27 1553.81 1377.05 1553.81 Q1376.66 1553.81 1376.44 1553.56 Q1376.24 1553.3 1376.18 1553.11 Q1376.15 1552.88 1376.05 1552.3 L1370.38 1511.4 L1370.32 1511.4 L1361.33 1547.34 Q1361.07 1548.34 1361.07 1548.85 Q1361.07 1550.17 1362.01 1550.98 Q1362.97 1551.75 1365.55 1551.79 Q1366.74 1551.79 1366.74 1552.49 Q1366.74 1553.81 1365.55 1553.81 Q1364.45 1553.81 1362.17 1553.72 Q1359.88 1553.62 1358.75 1553.62 Q1357.66 1553.62 1355.44 1553.72 Q1353.25 1553.81 1352.18 1553.81 Q1351.25 1553.81 1351.25 1553.01 Q1351.25 1551.79 1352.44 1551.79 Q1354.37 1551.72 1355.69 1551.33 Q1357.02 1550.95 1357.76 1550.21 Q1358.53 1549.47 1358.88 1548.73 Q1359.27 1547.95 1359.56 1546.83 L1367.93 1513.23 Q1368.19 1512.17 1368.19 1512.01 Q1368.19 1511.46 1367.87 1511.27 Q1367.58 1511.04 1366.74 1510.95 Q1365.13 1510.82 1363.91 1510.82 Q1363.1 1510.82 1362.78 1510.79 Q1362.49 1510.75 1362.23 1510.59 Q1362.01 1510.4 1362.01 1510.01 Q1362.01 1509.4 1362.26 1509.14 Q1362.55 1508.85 1362.88 1508.82 Q1363.2 1508.76 1363.97 1508.76 L1373.02 1508.76 Q1374.34 1508.76 1374.63 1508.98 Q1374.92 1509.18 1375.05 1510.27 L1380.2 1547.6 L1404.29 1510.01 Q1404.91 1509.08 1405.23 1508.92 Q1405.55 1508.76 1406.84 1508.76 L1415.57 1508.76 Q1416.27 1508.76 1416.56 1508.79 Q1416.85 1508.82 1417.08 1508.98 Q1417.34 1509.14 1417.34 1509.5 Z" fill="#000000" fill-rule="evenodd" fill-opacity="1" /><path clip-path="url(#clip550)" d="M1454.07 1552.38 Q1455.33 1555.28 1455.33 1558.51 Q1455.33 1561.73 1454.07 1564.66 Q1452.83 1567.57 1450.71 1569.69 Q1448.61 1571.79 1445.68 1573.03 Q1442.77 1574.29 1439.55 1574.29 Q1435.26 1574.29 1431.61 1572.17 Q1427.98 1570.07 1425.86 1566.44 Q1423.74 1562.79 1423.74 1558.51 Q1423.74 1554.22 1425.86 1550.59 Q1427.98 1546.94 1431.61 1544.85 Q1435.26 1542.73 1439.55 1542.73 Q1442.77 1542.73 1445.68 1543.99 Q1448.61 1545.23 1450.71 1547.35 Q1452.83 1549.44 1454.07 1552.38 M1452.37 1563.94 Q1453.48 1561.35 1453.48 1558.51 Q1453.48 1555.67 1452.37 1553.1 Q1451.27 1550.5 1449.4 1548.66 Q1447.55 1546.78 1444.96 1545.68 Q1442.39 1544.57 1439.55 1544.57 Q1435.76 1544.57 1432.54 1546.45 Q1429.33 1548.29 1427.46 1551.52 Q1425.59 1554.72 1425.59 1558.51 Q1425.59 1562.29 1427.46 1565.52 Q1429.33 1568.72 1432.54 1570.57 Q1435.76 1572.44 1439.55 1572.44 Q1442.39 1572.44 1444.96 1571.33 Q1447.55 1570.23 1449.4 1568.38 Q1451.27 1566.51 1452.37 1563.94 M1441.26 1556.79 Q1441.98 1557.52 1441.98 1558.51 Q1441.98 1559.5 1441.26 1560.24 Q1440.54 1560.96 1439.55 1560.96 Q1438.56 1560.96 1437.81 1560.24 Q1437.09 1559.5 1437.09 1558.51 Q1437.09 1557.52 1437.81 1556.79 Q1438.56 1556.05 1439.55 1556.05 Q1440.54 1556.05 1441.26 1556.79 Z" fill="#000000" fill-rule="evenodd" fill-opacity="1" /><path clip-path="url(#clip550)" d="M1466.35 1568.79 L1471.89 1568.79 L1471.89 1505.86 L1466.35 1505.86 L1466.35 1504.35 L1476.31 1504.35 L1476.31 1570.3 L1466.35 1570.3 L1466.35 1568.79 Z" fill="#000000" fill-rule="evenodd" fill-opacity="1" /><polyline clip-path="url(#clip552)" style="stroke:#000000; stroke-linecap:butt; stroke-linejoin:round; stroke-width:2; stroke-opacity:0.1; fill:none" points="
  257.204,1166.81 2352.76,1166.81 
  "/>
<polyline clip-path="url(#clip552)" style="stroke:#000000; stroke-linecap:butt; stroke-linejoin:round; stroke-width:2; stroke-opacity:0.1; fill:none" points="
  257.204,896.65 2352.76,896.65 
  "/>
<polyline clip-path="url(#clip552)" style="stroke:#000000; stroke-linecap:butt; stroke-linejoin:round; stroke-width:2; stroke-opacity:0.1; fill:none" points="
  257.204,626.495 2352.76,626.495 
  "/>
<polyline clip-path="url(#clip552)" style="stroke:#000000; stroke-linecap:butt; stroke-linejoin:round; stroke-width:2; stroke-opacity:0.1; fill:none" points="
  257.204,356.341 2352.76,356.341 
  "/>
<polyline clip-path="url(#clip552)" style="stroke:#000000; stroke-linecap:butt; stroke-linejoin:round; stroke-width:2; stroke-opacity:0.1; fill:none" points="
  257.204,86.1857 2352.76,86.1857 
  "/>
<polyline clip-path="url(#clip550)" style="stroke:#000000; stroke-linecap:butt; stroke-linejoin:round; stroke-width:4; stroke-opacity:1; fill:none" points="
  257.204,1423.18 257.204,47.2441 
  "/>
<polyline clip-path="url(#clip550)" style="stroke:#000000; stroke-linecap:butt; stroke-linejoin:round; stroke-width:4; stroke-opacity:1; fill:none" points="
  257.204,1166.81 276.102,1166.81 
  "/>
<polyline clip-path="url(#clip550)" style="stroke:#000000; stroke-linecap:butt; stroke-linejoin:round; stroke-width:4; stroke-opacity:1; fill:none" points="
  257.204,896.65 276.102,896.65 
  "/>
<polyline clip-path="url(#clip550)" style="stroke:#000000; stroke-linecap:butt; stroke-linejoin:round; stroke-width:4; stroke-opacity:1; fill:none" points="
  257.204,626.495 276.102,626.495 
  "/>
<polyline clip-path="url(#clip550)" style="stroke:#000000; stroke-linecap:butt; stroke-linejoin:round; stroke-width:4; stroke-opacity:1; fill:none" points="
  257.204,356.341 276.102,356.341 
  "/>
<polyline clip-path="url(#clip550)" style="stroke:#000000; stroke-linecap:butt; stroke-linejoin:round; stroke-width:4; stroke-opacity:1; fill:none" points="
  257.204,86.1857 276.102,86.1857 
  "/>
<path clip-path="url(#clip550)" d="M114.26 1167.26 L143.936 1167.26 L143.936 1171.19 L114.26 1171.19 L114.26 1167.26 Z" fill="#000000" fill-rule="evenodd" fill-opacity="1" /><path clip-path="url(#clip550)" d="M158.056 1180.15 L174.376 1180.15 L174.376 1184.09 L152.431 1184.09 L152.431 1180.15 Q155.093 1177.4 159.677 1172.77 Q164.283 1168.11 165.464 1166.77 Q167.709 1164.25 168.589 1162.51 Q169.491 1160.75 169.491 1159.06 Q169.491 1156.31 167.547 1154.57 Q165.626 1152.84 162.524 1152.84 Q160.325 1152.84 157.871 1153.6 Q155.44 1154.36 152.663 1155.91 L152.663 1151.19 Q155.487 1150.06 157.94 1149.48 Q160.394 1148.9 162.431 1148.9 Q167.802 1148.9 170.996 1151.59 Q174.19 1154.27 174.19 1158.76 Q174.19 1160.89 173.38 1162.81 Q172.593 1164.71 170.487 1167.3 Q169.908 1167.97 166.806 1171.19 Q163.704 1174.39 158.056 1180.15 Z" fill="#000000" fill-rule="evenodd" fill-opacity="1" /><path clip-path="url(#clip550)" d="M184.19 1178.21 L189.075 1178.21 L189.075 1184.09 L184.19 1184.09 L184.19 1178.21 Z" fill="#000000" fill-rule="evenodd" fill-opacity="1" /><path clip-path="url(#clip550)" d="M209.26 1152.6 Q205.649 1152.6 203.82 1156.17 Q202.014 1159.71 202.014 1166.84 Q202.014 1173.95 203.82 1177.51 Q205.649 1181.05 209.26 1181.05 Q212.894 1181.05 214.699 1177.51 Q216.528 1173.95 216.528 1166.84 Q216.528 1159.71 214.699 1156.17 Q212.894 1152.6 209.26 1152.6 M209.26 1148.9 Q215.07 1148.9 218.125 1153.51 Q221.204 1158.09 221.204 1166.84 Q221.204 1175.57 218.125 1180.17 Q215.07 1184.76 209.26 1184.76 Q203.449 1184.76 200.371 1180.17 Q197.315 1175.57 197.315 1166.84 Q197.315 1158.09 200.371 1153.51 Q203.449 1148.9 209.26 1148.9 Z" fill="#000000" fill-rule="evenodd" fill-opacity="1" /><path clip-path="url(#clip550)" d="M115.256 897.102 L144.931 897.102 L144.931 901.037 L115.256 901.037 L115.256 897.102 Z" fill="#000000" fill-rule="evenodd" fill-opacity="1" /><path clip-path="url(#clip550)" d="M155.834 909.995 L163.473 909.995 L163.473 883.629 L155.163 885.296 L155.163 881.037 L163.427 879.37 L168.102 879.37 L168.102 909.995 L175.741 909.995 L175.741 913.93 L155.834 913.93 L155.834 909.995 Z" fill="#000000" fill-rule="evenodd" fill-opacity="1" /><path clip-path="url(#clip550)" d="M185.186 908.051 L190.07 908.051 L190.07 913.93 L185.186 913.93 L185.186 908.051 Z" fill="#000000" fill-rule="evenodd" fill-opacity="1" /><path clip-path="url(#clip550)" d="M200.301 879.37 L218.658 879.37 L218.658 883.305 L204.584 883.305 L204.584 891.778 Q205.602 891.43 206.621 891.268 Q207.639 891.083 208.658 891.083 Q214.445 891.083 217.824 894.254 Q221.204 897.426 221.204 902.842 Q221.204 908.421 217.732 911.523 Q214.26 914.602 207.94 914.602 Q205.764 914.602 203.496 914.231 Q201.25 913.861 198.843 913.12 L198.843 908.421 Q200.926 909.555 203.149 910.111 Q205.371 910.666 207.848 910.666 Q211.852 910.666 214.19 908.56 Q216.528 906.453 216.528 902.842 Q216.528 899.231 214.19 897.125 Q211.852 895.018 207.848 895.018 Q205.973 895.018 204.098 895.435 Q202.246 895.852 200.301 896.731 L200.301 879.37 Z" fill="#000000" fill-rule="evenodd" fill-opacity="1" /><path clip-path="url(#clip550)" d="M114.26 626.947 L143.936 626.947 L143.936 630.882 L114.26 630.882 L114.26 626.947 Z" fill="#000000" fill-rule="evenodd" fill-opacity="1" /><path clip-path="url(#clip550)" d="M154.839 639.84 L162.477 639.84 L162.477 613.475 L154.167 615.141 L154.167 610.882 L162.431 609.215 L167.107 609.215 L167.107 639.84 L174.746 639.84 L174.746 643.775 L154.839 643.775 L154.839 639.84 Z" fill="#000000" fill-rule="evenodd" fill-opacity="1" /><path clip-path="url(#clip550)" d="M184.19 637.896 L189.075 637.896 L189.075 643.775 L184.19 643.775 L184.19 637.896 Z" fill="#000000" fill-rule="evenodd" fill-opacity="1" /><path clip-path="url(#clip550)" d="M209.26 612.294 Q205.649 612.294 203.82 615.859 Q202.014 619.4 202.014 626.53 Q202.014 633.637 203.82 637.201 Q205.649 640.743 209.26 640.743 Q212.894 640.743 214.699 637.201 Q216.528 633.637 216.528 626.53 Q216.528 619.4 214.699 615.859 Q212.894 612.294 209.26 612.294 M209.26 608.59 Q215.07 608.59 218.125 613.197 Q221.204 617.78 221.204 626.53 Q221.204 635.257 218.125 639.863 Q215.07 644.447 209.26 644.447 Q203.449 644.447 200.371 639.863 Q197.315 635.257 197.315 626.53 Q197.315 617.78 200.371 613.197 Q203.449 608.59 209.26 608.59 Z" fill="#000000" fill-rule="evenodd" fill-opacity="1" /><path clip-path="url(#clip550)" d="M115.256 356.792 L144.931 356.792 L144.931 360.727 L115.256 360.727 L115.256 356.792 Z" fill="#000000" fill-rule="evenodd" fill-opacity="1" /><path clip-path="url(#clip550)" d="M165.024 342.139 Q161.413 342.139 159.584 345.704 Q157.778 349.246 157.778 356.375 Q157.778 363.482 159.584 367.046 Q161.413 370.588 165.024 370.588 Q168.658 370.588 170.464 367.046 Q172.292 363.482 172.292 356.375 Q172.292 349.246 170.464 345.704 Q168.658 342.139 165.024 342.139 M165.024 338.436 Q170.834 338.436 173.889 343.042 Q176.968 347.625 176.968 356.375 Q176.968 365.102 173.889 369.709 Q170.834 374.292 165.024 374.292 Q159.214 374.292 156.135 369.709 Q153.079 365.102 153.079 356.375 Q153.079 347.625 156.135 343.042 Q159.214 338.436 165.024 338.436 Z" fill="#000000" fill-rule="evenodd" fill-opacity="1" /><path clip-path="url(#clip550)" d="M185.186 367.741 L190.07 367.741 L190.07 373.621 L185.186 373.621 L185.186 367.741 Z" fill="#000000" fill-rule="evenodd" fill-opacity="1" /><path clip-path="url(#clip550)" d="M200.301 339.061 L218.658 339.061 L218.658 342.996 L204.584 342.996 L204.584 351.468 Q205.602 351.121 206.621 350.959 Q207.639 350.773 208.658 350.773 Q214.445 350.773 217.824 353.945 Q221.204 357.116 221.204 362.533 Q221.204 368.111 217.732 371.213 Q214.26 374.292 207.94 374.292 Q205.764 374.292 203.496 373.921 Q201.25 373.551 198.843 372.81 L198.843 368.111 Q200.926 369.246 203.149 369.801 Q205.371 370.357 207.848 370.357 Q211.852 370.357 214.19 368.25 Q216.528 366.144 216.528 362.533 Q216.528 358.922 214.19 356.815 Q211.852 354.709 207.848 354.709 Q205.973 354.709 204.098 355.125 Q202.246 355.542 200.301 356.422 L200.301 339.061 Z" fill="#000000" fill-rule="evenodd" fill-opacity="1" /><path clip-path="url(#clip550)" d="M164.028 71.9844 Q160.417 71.9844 158.589 75.5492 Q156.783 79.0908 156.783 86.2204 Q156.783 93.3268 158.589 96.8916 Q160.417 100.433 164.028 100.433 Q167.663 100.433 169.468 96.8916 Q171.297 93.3268 171.297 86.2204 Q171.297 79.0908 169.468 75.5492 Q167.663 71.9844 164.028 71.9844 M164.028 68.2807 Q169.839 68.2807 172.894 72.8871 Q175.973 77.4704 175.973 86.2204 Q175.973 94.9472 172.894 99.5537 Q169.839 104.137 164.028 104.137 Q158.218 104.137 155.14 99.5537 Q152.084 94.9472 152.084 86.2204 Q152.084 77.4704 155.14 72.8871 Q158.218 68.2807 164.028 68.2807 Z" fill="#000000" fill-rule="evenodd" fill-opacity="1" /><path clip-path="url(#clip550)" d="M184.19 97.5861 L189.075 97.5861 L189.075 103.466 L184.19 103.466 L184.19 97.5861 Z" fill="#000000" fill-rule="evenodd" fill-opacity="1" /><path clip-path="url(#clip550)" d="M209.26 71.9844 Q205.649 71.9844 203.82 75.5492 Q202.014 79.0908 202.014 86.2204 Q202.014 93.3268 203.82 96.8916 Q205.649 100.433 209.26 100.433 Q212.894 100.433 214.699 96.8916 Q216.528 93.3268 216.528 86.2204 Q216.528 79.0908 214.699 75.5492 Q212.894 71.9844 209.26 71.9844 M209.26 68.2807 Q215.07 68.2807 218.125 72.8871 Q221.204 77.4704 221.204 86.2204 Q221.204 94.9472 218.125 99.5537 Q215.07 104.137 209.26 104.137 Q203.449 104.137 200.371 99.5537 Q197.315 94.9472 197.315 86.2204 Q197.315 77.4704 200.371 72.8871 Q203.449 68.2807 209.26 68.2807 Z" fill="#000000" fill-rule="evenodd" fill-opacity="1" /><path clip-path="url(#clip550)" d="M64.7033 862.071 L62.6743 862.071 Q62.6743 858.56 62.2557 857.755 Q61.8048 856.95 59.6792 856.95 L25.38 856.95 Q22.9323 856.95 22.3204 857.82 Q21.7085 858.657 21.7085 862.071 L19.6473 862.071 L18.9388 852.602 L59.6792 852.602 Q61.8048 852.602 62.2557 851.765 Q62.6743 850.928 62.6743 847.449 L64.7033 847.449 Q64.7033 848.255 64.6389 849.929 Q64.5745 851.604 64.5423 852.828 Q64.5101 854.052 64.5101 854.76 Q64.5101 855.533 64.7033 862.071 Z" fill="#000000" fill-rule="evenodd" fill-opacity="1" /><path clip-path="url(#clip550)" d="M61.1607 837.525 Q56.8451 841.872 50.5971 841.872 Q44.317 841.872 39.7438 837.621 Q35.1383 833.338 35.1383 827.219 Q35.1383 821.229 39.7116 816.945 Q44.2526 812.63 50.5971 812.63 Q56.8129 812.63 61.1285 816.977 Q65.444 821.293 65.444 827.283 Q65.444 833.145 61.1607 837.525 M50.0496 836.397 Q56.4586 836.397 59.3571 834.723 Q63.7693 832.146 63.7693 827.219 Q63.7693 824.771 62.4489 822.742 Q61.1285 820.681 58.9063 819.554 Q56.0077 818.105 50.0496 818.105 Q43.7051 818.105 40.9032 819.844 Q36.6198 822.42 36.6198 827.283 Q36.6198 829.409 37.747 831.502 Q38.842 833.563 41.032 834.819 Q43.9305 836.397 50.0496 836.397 Z" fill="#000000" fill-rule="evenodd" fill-opacity="1" /><path clip-path="url(#clip550)" d="M69.9207 811.584 Q67.7951 811.584 65.9593 809.974 Q64.1236 808.332 63.3185 805.498 Q61.4827 808.396 57.457 808.396 Q54.3652 808.396 51.982 806.367 Q49.4055 809.459 45.1866 809.459 Q41.2897 809.459 38.4233 806.367 Q35.557 803.275 35.557 798.766 Q35.557 794.805 37.9402 791.778 Q34.8485 788.622 34.8163 784.789 Q34.8163 783.082 35.8791 782.277 Q36.9419 781.44 38.0691 781.44 Q39.0674 781.44 39.5505 782.084 Q40.0336 782.696 40.0336 783.34 Q40.0336 784.145 39.5183 784.725 Q38.9708 785.272 38.1335 785.272 Q36.7486 785.272 36.3299 784.209 Q36.2655 784.403 36.2655 784.854 Q36.2655 788.074 38.842 790.812 Q41.3541 788.106 45.251 788.106 Q49.1479 788.106 52.0142 791.198 Q54.8805 794.29 54.8805 798.766 Q54.8805 802.47 52.8194 805.304 Q54.1398 806.431 55.9433 806.431 Q57.5858 806.431 58.8741 805.433 Q60.1623 804.435 60.3555 802.921 Q60.4199 802.47 60.4199 797.994 Q60.4199 795.353 60.4843 793.903 Q60.5488 792.454 60.9996 790.393 Q61.4183 788.3 62.2557 786.657 Q64.6389 782.374 69.7918 782.341 Q73.5599 782.341 75.911 786.689 Q78.2942 791.005 78.2942 796.995 Q78.2942 803.05 75.8787 807.333 Q73.4955 811.584 69.9207 811.584 M69.9207 808.138 Q72.626 808.138 74.6871 804.95 Q76.7805 801.762 76.7805 796.931 Q76.7805 792.196 74.7193 789.008 Q72.6904 785.788 69.9207 785.788 Q67.9561 785.788 66.7001 786.915 Q65.444 788.042 64.9288 790.361 Q64.4457 792.647 64.349 794.258 Q64.2524 795.868 64.2524 798.831 L64.2524 802.728 Q64.3813 804.982 66.0238 806.56 Q67.6663 808.138 69.9207 808.138 M45.251 804.531 Q53.3669 804.531 53.3669 798.766 Q53.3669 795.868 50.726 794.097 Q48.9546 793.034 45.1866 793.034 Q37.0707 793.034 37.0707 798.766 Q37.0707 801.665 39.7116 803.469 Q41.4829 804.531 45.251 804.531 Z" fill="#000000" fill-rule="evenodd" fill-opacity="1" /><path clip-path="url(#clip550)" d="M48.2139 778.92 Q37.0707 778.92 28.0852 774.766 Q24.3172 772.994 21.161 770.515 Q18.0048 768.035 16.62 766.392 Q15.2351 764.75 15.2351 764.299 Q15.2351 763.655 15.8792 763.623 Q16.2013 763.623 17.0064 764.492 Q27.8276 775.12 48.2139 775.088 Q68.6646 775.088 79.0671 764.75 Q80.1943 763.623 80.5486 763.623 Q81.1927 763.623 81.1927 764.299 Q81.1927 764.75 79.8723 766.328 Q78.5518 767.906 75.5245 770.354 Q72.4971 772.801 68.7935 774.573 Q59.808 778.92 48.2139 778.92 Z" fill="#000000" fill-rule="evenodd" fill-opacity="1" /><path clip-path="url(#clip550)" d="M55.267 727.344 Q59.4216 728.213 61.8048 729.341 Q65.444 731.144 65.444 734.204 Q65.444 736.523 64.027 738.165 Q62.6099 739.808 60.4843 740.194 Q65.444 744.413 65.444 748.793 Q65.444 752.658 62.5133 755.105 Q59.5504 757.553 54.8805 757.553 Q50.1785 757.553 45.6696 755.234 Q41.1608 752.883 38.3589 749.179 Q35.557 745.476 35.557 741.675 Q35.557 737.65 39.776 735.589 Q38.6166 735.428 37.747 734.687 Q36.8774 733.946 36.8774 732.819 Q36.8774 731.949 37.3605 731.434 Q37.8114 730.919 38.6488 730.919 Q39.0674 730.919 40.9032 731.37 L50.1141 733.753 L56.0721 735.202 Q58.2621 735.75 59.0673 735.911 Q59.8724 736.039 60.9352 736.039 Q63.9626 736.039 63.9626 734.075 Q63.9626 733.109 63.3507 732.336 Q62.7388 731.563 61.4505 730.951 Q60.1623 730.339 58.9707 729.953 Q57.7468 729.566 55.8145 729.051 Q55.0416 728.89 54.8483 728.761 Q54.6229 728.6 54.6229 728.149 Q54.6229 727.344 55.267 727.344 M42.8033 736.394 Q42.5135 736.394 41.7083 736.619 Q40.9032 736.845 39.776 737.36 Q38.6488 737.875 37.8436 739.002 Q37.0063 740.097 37.0063 741.579 Q37.0063 743.576 38.7132 745.669 Q40.4201 747.73 43.3186 749.244 Q45.6374 750.403 50.5005 751.659 Q55.3636 752.883 57.7791 752.883 Q59.2605 752.883 60.581 752.561 Q61.8692 752.207 62.932 751.208 Q63.9626 750.21 63.9626 748.664 Q63.9626 744.896 59.2927 741.192 Q58.4876 740.484 58.1655 740.323 Q57.8113 740.13 56.8451 739.872 L43.9305 736.587 Q42.9644 736.394 42.8033 736.394 Z" fill="#000000" fill-rule="evenodd" fill-opacity="1" /><path clip-path="url(#clip550)" d="M80.2587 723.007 Q79.9367 723.007 79.2282 722.749 L17.0064 699.464 Q16.942 699.464 16.5878 699.303 Q16.2335 699.142 16.0081 699.046 Q15.7504 698.949 15.5572 698.756 Q15.3639 698.53 15.3639 698.273 Q15.3639 697.629 16.1691 697.629 Q16.2335 697.629 17.0064 697.822 L79.2926 721.171 Q80.4198 721.558 80.7418 721.815 Q81.0639 722.041 81.0639 722.427 Q81.0639 723.007 80.2587 723.007 Z" fill="#000000" fill-rule="evenodd" fill-opacity="1" /><path clip-path="url(#clip550)" d="M55.267 660.134 Q59.4216 661.003 61.8048 662.13 Q65.444 663.934 65.444 666.994 Q65.444 669.312 64.027 670.955 Q62.6099 672.597 60.4843 672.984 Q65.444 677.203 65.444 681.583 Q65.444 685.448 62.5133 687.895 Q59.5504 690.343 54.8805 690.343 Q50.1785 690.343 45.6696 688.024 Q41.1608 685.673 38.3589 681.969 Q35.557 678.266 35.557 674.465 Q35.557 670.44 39.776 668.378 Q38.6166 668.217 37.747 667.477 Q36.8774 666.736 36.8774 665.609 Q36.8774 664.739 37.3605 664.224 Q37.8114 663.709 38.6488 663.709 Q39.0674 663.709 40.9032 664.159 L50.1141 666.543 L56.0721 667.992 Q58.2621 668.539 59.0673 668.7 Q59.8724 668.829 60.9352 668.829 Q63.9626 668.829 63.9626 666.865 Q63.9626 665.899 63.3507 665.126 Q62.7388 664.353 61.4505 663.741 Q60.1623 663.129 58.9707 662.742 Q57.7468 662.356 55.8145 661.841 Q55.0416 661.68 54.8483 661.551 Q54.6229 661.39 54.6229 660.939 Q54.6229 660.134 55.267 660.134 M42.8033 669.184 Q42.5135 669.184 41.7083 669.409 Q40.9032 669.634 39.776 670.15 Q38.6488 670.665 37.8436 671.792 Q37.0063 672.887 37.0063 674.369 Q37.0063 676.365 38.7132 678.459 Q40.4201 680.52 43.3186 682.034 Q45.6374 683.193 50.5005 684.449 Q55.3636 685.673 57.7791 685.673 Q59.2605 685.673 60.581 685.351 Q61.8692 684.997 62.932 683.998 Q63.9626 683 63.9626 681.454 Q63.9626 677.686 59.2927 673.982 Q58.4876 673.274 58.1655 673.113 Q57.8113 672.919 56.8451 672.662 L43.9305 669.377 Q42.9644 669.184 42.8033 669.184 Z" fill="#000000" fill-rule="evenodd" fill-opacity="1" /><path clip-path="url(#clip550)" d="M83.793 653.381 L82.3727 653.381 Q82.3727 650.924 82.0796 650.36 Q81.764 649.796 80.2761 649.796 L67.8543 649.796 Q66.141 649.796 65.7352 650.383 Q65.3294 650.946 65.3294 653.201 L63.8866 653.201 L63.3906 646.753 L80.3212 646.753 Q81.6964 646.753 82.0346 646.257 Q82.3727 645.761 82.3727 643.507 L83.793 643.507 Q83.6577 648.218 83.6577 648.309 Q83.6577 648.94 83.793 653.381 M55.3423 651.442 Q54.418 651.442 53.6741 650.743 Q52.9076 650.022 52.9076 649.007 Q52.9076 647.993 53.6064 647.271 Q54.2828 646.55 55.3649 646.55 Q56.4245 646.55 57.1233 647.271 Q57.7997 647.993 57.7997 649.007 Q57.7997 650.067 57.0557 650.766 Q56.3117 651.442 55.3423 651.442 Z" fill="#000000" fill-rule="evenodd" fill-opacity="1" /><path clip-path="url(#clip550)" d="M80.5486 633.68 Q80.2265 633.68 79.4214 632.843 Q68.6002 622.215 48.2139 622.215 Q27.7632 622.215 17.4251 632.424 Q16.2335 633.68 15.8792 633.68 Q15.2351 633.68 15.2351 633.036 Q15.2351 632.585 16.5556 631.007 Q17.876 629.397 20.9033 626.982 Q23.9307 624.534 27.6344 622.73 Q36.6198 618.383 48.2139 618.383 Q59.3571 618.383 68.3426 622.537 Q72.1107 624.309 75.2668 626.788 Q78.423 629.268 79.8079 630.911 Q81.1927 632.553 81.1927 633.036 Q81.1927 633.68 80.5486 633.68 Z" fill="#000000" fill-rule="evenodd" fill-opacity="1" /><polyline clip-path="url(#clip552)" style="stroke:#009af9; stroke-linecap:butt; stroke-linejoin:round; stroke-width:4; stroke-opacity:1; fill:none" points="
  316.512,644.554 336.481,640.723 356.45,636.834 376.419,632.889 396.388,628.887 416.357,624.831 436.326,620.721 456.295,616.558 476.264,612.343 496.234,608.077 
  516.203,603.762 536.172,599.396 556.141,594.983 576.11,590.522 596.079,586.014 616.048,581.46 636.017,576.861 655.986,572.217 675.955,567.53 695.924,562.799 
  715.893,558.026 735.862,553.211 755.831,548.355 775.8,543.459 795.769,538.523 815.738,533.548 835.707,528.534 855.676,523.482 875.645,518.392 895.614,513.266 
  915.584,508.103 935.553,502.904 955.522,497.671 975.491,492.402 995.46,487.099 1015.43,481.762 1035.4,476.391 1055.37,470.988 1075.34,465.553 1095.3,460.085 
  1115.27,454.586 1135.24,449.056 1155.21,443.495 1175.18,437.903 1195.15,432.282 1215.12,426.631 1235.09,420.951 1255.06,415.243 1275.03,409.506 1295,403.741 
  1314.96,397.948 1334.93,392.128 1354.9,386.281 1374.87,380.408 1394.84,374.508 1414.81,368.582 1434.78,362.631 1454.75,356.654 1474.72,350.653 1494.69,344.626 
  1514.65,338.575 1534.62,332.5 1554.59,326.401 1574.56,320.279 1594.53,314.133 1614.5,307.964 1634.47,301.773 1654.44,295.559 1674.41,289.322 1694.38,283.064 
  1714.35,276.784 1734.31,270.483 1754.28,264.16 1774.25,257.816 1794.22,251.451 1814.19,245.066 1834.16,238.661 1854.13,232.235 1874.1,225.79 1894.07,219.325 
  1914.04,212.84 1934,206.336 1953.97,199.813 1973.94,193.271 1993.91,186.71 2013.88,180.131 2033.85,173.534 2053.82,166.919 2073.79,160.285 2093.76,153.634 
  2113.73,146.965 2133.7,140.279 2153.66,133.576 2173.63,126.856 2193.6,120.119 2213.57,113.365 2233.54,106.594 2253.51,99.8077 2273.48,93.0047 2293.45,86.1857 
  
  "/>
<polyline clip-path="url(#clip552)" style="stroke:#e26f46; stroke-linecap:butt; stroke-linejoin:round; stroke-width:4; stroke-opacity:1; fill:none" points="
  316.512,807.677 336.481,802.229 356.45,796.723 376.419,791.159 396.388,785.537 416.357,779.86 436.326,774.129 456.295,768.343 476.264,762.505 496.234,756.614 
  516.203,750.673 536.172,744.682 556.141,738.641 576.11,732.552 596.079,726.415 616.048,720.231 636.017,714.002 655.986,707.727 675.955,701.407 695.924,695.044 
  715.893,688.637 735.862,682.188 755.831,675.697 775.8,669.165 795.769,662.593 815.738,655.98 835.707,649.329 855.676,642.638 875.645,635.91 895.614,629.144 
  915.584,622.341 935.553,615.501 955.522,608.626 975.491,601.715 995.46,594.769 1015.43,587.789 1035.4,580.775 1055.37,573.727 1075.34,566.647 1095.3,559.534 
  1115.27,552.389 1135.24,545.212 1155.21,538.004 1175.18,530.765 1195.15,523.496 1215.12,516.197 1235.09,508.868 1255.06,501.51 1275.03,494.123 1295,486.708 
  1314.96,479.265 1334.93,471.793 1354.9,464.295 1374.87,456.769 1394.84,449.217 1414.81,441.639 1434.78,434.034 1454.75,426.404 1474.72,418.748 1494.69,411.067 
  1514.65,403.361 1534.62,395.631 1554.59,387.876 1574.56,380.098 1594.53,372.296 1614.5,364.47 1634.47,356.622 1654.44,348.751 1674.41,340.857 1694.38,332.94 
  1714.35,325.002 1734.31,317.042 1754.28,309.06 1774.25,301.057 1794.22,293.033 1814.19,284.987 1834.16,276.922 1854.13,268.836 1874.1,260.729 1894.07,252.603 
  1914.04,244.457 1934,236.291 1953.97,228.106 1973.94,219.902 1993.91,211.679 2013.88,203.437 2033.85,195.177 2053.82,186.898 2073.79,178.601 2093.76,170.286 
  2113.73,161.953 2133.7,153.603 2153.66,145.235 2173.63,136.85 2193.6,128.448 2213.57,120.028 2233.54,111.592 2253.51,103.14 2273.48,94.6709 2293.45,86.1857 
  
  "/>
<polyline clip-path="url(#clip552)" style="stroke:#3da44d; stroke-linecap:butt; stroke-linejoin:round; stroke-width:4; stroke-opacity:1; fill:none" points="
  316.512,1037.49 336.481,1029.76 356.45,1021.96 376.419,1014.11 396.388,1006.2 416.357,998.232 436.326,990.209 456.295,982.13 476.264,973.997 496.234,965.812 
  516.203,957.574 536.172,949.285 556.141,940.946 576.11,932.558 596.079,924.121 616.048,915.636 636.017,907.104 655.986,898.526 675.955,889.903 695.924,881.235 
  715.893,872.522 735.862,863.767 755.831,854.969 775.8,846.129 795.769,837.248 815.738,828.326 835.707,819.364 855.676,810.362 875.645,801.322 895.614,792.243 
  915.584,783.127 935.553,773.974 955.522,764.784 975.491,755.558 995.46,746.296 1015.43,736.999 1035.4,727.668 1055.37,718.303 1075.34,708.904 1095.3,699.472 
  1115.27,690.007 1135.24,680.511 1155.21,670.982 1175.18,661.422 1195.15,651.831 1215.12,642.209 1235.09,632.558 1255.06,622.876 1275.03,613.166 1295,603.426 
  1314.96,593.658 1334.93,583.861 1354.9,574.037 1374.87,564.185 1394.84,554.306 1414.81,544.4 1434.78,534.468 1454.75,524.509 1474.72,514.525 1494.69,504.515 
  1514.65,494.48 1534.62,484.42 1554.59,474.335 1574.56,464.226 1594.53,454.093 1614.5,443.936 1634.47,433.756 1654.44,423.552 1674.41,413.326 1694.38,403.077 
  1714.35,392.805 1734.31,382.511 1754.28,372.195 1774.25,361.858 1794.22,351.499 1814.19,341.119 1834.16,330.718 1854.13,320.296 1874.1,309.853 1894.07,299.391 
  1914.04,288.908 1934,278.405 1953.97,267.883 1973.94,257.341 1993.91,246.78 2013.88,236.2 2033.85,225.601 2053.82,214.984 2073.79,204.348 2093.76,193.693 
  2113.73,183.021 2133.7,172.331 2153.66,161.623 2173.63,150.897 2193.6,140.155 2213.57,129.394 2233.54,118.617 2253.51,107.823 2273.48,97.0128 2293.45,86.1857 
  
  "/>
<polyline clip-path="url(#clip552)" style="stroke:#c271d2; stroke-linecap:butt; stroke-linejoin:round; stroke-width:4; stroke-opacity:1; fill:none" points="
  316.512,1384.24 336.481,1373.04 356.45,1361.78 376.419,1350.47 396.388,1339.09 416.357,1327.65 436.326,1316.16 456.295,1304.61 476.264,1293.01 496.234,1281.35 
  516.203,1269.63 536.172,1257.87 556.141,1246.05 576.11,1234.19 596.079,1222.27 616.048,1210.31 636.017,1198.3 655.986,1186.24 675.955,1174.13 695.924,1161.98 
  715.893,1149.78 735.862,1137.54 755.831,1125.25 775.8,1112.93 795.769,1100.56 815.738,1088.15 835.707,1075.69 855.676,1063.2 875.645,1050.67 895.614,1038.1 
  915.584,1025.49 935.553,1012.84 955.522,1000.16 975.491,987.434 995.46,974.676 1015.43,961.882 1035.4,949.053 1055.37,936.189 1075.34,923.291 1095.3,910.359 
  1115.27,897.394 1135.24,884.396 1155.21,871.365 1175.18,858.303 1195.15,845.209 1215.12,832.084 1235.09,818.928 1255.06,805.741 1275.03,792.525 1295,779.28 
  1314.96,766.005 1334.93,752.701 1354.9,739.369 1374.87,726.009 1394.84,712.622 1414.81,699.206 1434.78,685.764 1454.75,672.296 1474.72,658.801 1494.69,645.28 
  1514.65,631.733 1534.62,618.161 1554.59,604.563 1574.56,590.941 1594.53,577.295 1614.5,563.624 1634.47,549.93 1654.44,536.211 1674.41,522.47 1694.38,508.705 
  1714.35,494.917 1734.31,481.107 1754.28,467.275 1774.25,453.42 1794.22,439.544 1814.19,425.646 1834.16,411.726 1854.13,397.786 1874.1,383.825 1894.07,369.843 
  1914.04,355.84 1934,341.818 1953.97,327.775 1973.94,313.713 1993.91,299.631 2013.88,285.529 2033.85,271.409 2053.82,257.27 2073.79,243.111 2093.76,228.935 
  2113.73,214.739 2133.7,200.526 2153.66,186.295 2173.63,172.045 2193.6,157.779 2213.57,143.494 2233.54,129.193 2253.51,114.874 2273.48,100.538 2293.45,86.1857 
  
  "/>
<path clip-path="url(#clip550)" d="
M1922.56 1377.32 L2282.9 1377.32 L2282.9 1118.12 L1922.56 1118.12  Z
  " fill="#ffffff" fill-rule="evenodd" fill-opacity="1"/>
<polyline clip-path="url(#clip550)" style="stroke:#000000; stroke-linecap:butt; stroke-linejoin:round; stroke-width:4; stroke-opacity:1; fill:none" points="
  1922.56,1377.32 2282.9,1377.32 2282.9,1118.12 1922.56,1118.12 1922.56,1377.32 
  "/>
<polyline clip-path="url(#clip550)" style="stroke:#009af9; stroke-linecap:butt; stroke-linejoin:round; stroke-width:4; stroke-opacity:1; fill:none" points="
  1945.84,1169.96 2085.54,1169.96 
  "/>
<path clip-path="url(#clip550)" d="M2108.83 1144.19 L2131.05 1144.19 L2131.05 1146.18 L2118.5 1178.75 L2113.62 1178.75 L2125.43 1148.13 L2108.83 1148.13 L2108.83 1144.19 Z" fill="#000000" fill-rule="evenodd" fill-opacity="1" /><path clip-path="url(#clip550)" d="M2179.11 1146.52 Q2179.11 1147.2 2178.81 1147.34 Q2178.53 1147.48 2177.59 1147.48 Q2176.49 1147.48 2175.81 1147.58 Q2175.13 1147.65 2174.71 1147.77 Q2174.29 1147.86 2174.03 1148.19 Q2173.8 1148.51 2173.7 1148.8 Q2173.61 1149.05 2173.44 1149.69 L2167.07 1175.24 Q2166.84 1176.11 2166.84 1176.41 Q2166.84 1176.72 2167.03 1176.9 Q2167.24 1177.09 2167.75 1177.18 Q2168.27 1177.25 2168.67 1177.28 Q2169.09 1177.28 2169.95 1177.28 Q2171.03 1177.28 2171.2 1177.46 Q2171.29 1177.58 2171.29 1177.79 Q2171.29 1178.24 2171.1 1178.47 Q2170.92 1178.68 2170.75 1178.73 Q2170.61 1178.75 2170.38 1178.75 Q2169.39 1178.75 2167.38 1178.68 Q2165.36 1178.61 2164.38 1178.61 L2158.43 1178.75 Q2157.73 1178.75 2157.73 1178.17 Q2157.73 1177.72 2157.92 1177.54 Q2158.1 1177.32 2158.31 1177.3 Q2158.52 1177.28 2159.06 1177.28 Q2160.98 1177.28 2161.8 1177.07 Q2162.65 1176.86 2162.88 1176.48 Q2163.14 1176.08 2163.42 1175.01 L2170.28 1147.53 L2170.24 1147.53 L2150.87 1177.89 L2150.73 1178.1 Q2150.58 1178.28 2150.54 1178.35 Q2150.49 1178.4 2150.35 1178.54 Q2150.23 1178.66 2150.09 1178.71 Q2149.98 1178.75 2149.81 1178.75 Q2149.53 1178.75 2149.37 1178.57 Q2149.23 1178.38 2149.18 1178.24 Q2149.16 1178.07 2149.09 1177.65 L2144.96 1147.91 L2144.92 1147.91 L2138.38 1174.05 Q2138.19 1174.77 2138.19 1175.15 Q2138.19 1176.11 2138.87 1176.69 Q2139.58 1177.25 2141.45 1177.28 Q2142.32 1177.28 2142.32 1177.79 Q2142.32 1178.75 2141.45 1178.75 Q2140.65 1178.75 2138.99 1178.68 Q2137.33 1178.61 2136.51 1178.61 Q2135.71 1178.61 2134.1 1178.68 Q2132.5 1178.75 2131.73 1178.75 Q2131.05 1178.75 2131.05 1178.17 Q2131.05 1177.28 2131.92 1177.28 Q2133.32 1177.23 2134.28 1176.95 Q2135.24 1176.67 2135.78 1176.13 Q2136.34 1175.59 2136.6 1175.05 Q2136.88 1174.49 2137.09 1173.67 L2143.18 1149.24 Q2143.37 1148.47 2143.37 1148.35 Q2143.37 1147.95 2143.14 1147.81 Q2142.93 1147.65 2142.32 1147.58 Q2141.15 1147.48 2140.26 1147.48 Q2139.67 1147.48 2139.44 1147.46 Q2139.22 1147.44 2139.04 1147.32 Q2138.87 1147.18 2138.87 1146.9 Q2138.87 1146.45 2139.06 1146.27 Q2139.27 1146.06 2139.51 1146.03 Q2139.74 1145.99 2140.3 1145.99 L2146.88 1145.99 Q2147.84 1145.99 2148.05 1146.15 Q2148.27 1146.29 2148.36 1147.09 L2152.11 1174.23 L2169.63 1146.9 Q2170.07 1146.22 2170.31 1146.1 Q2170.54 1145.99 2171.48 1145.99 L2177.82 1145.99 Q2178.34 1145.99 2178.55 1146.01 Q2178.76 1146.03 2178.93 1146.15 Q2179.11 1146.27 2179.11 1146.52 Z" fill="#000000" fill-rule="evenodd" fill-opacity="1" /><path clip-path="url(#clip550)" d="M2215.13 1177.7 Q2216.05 1179.82 2216.05 1182.16 Q2216.05 1184.51 2215.13 1186.64 Q2214.23 1188.76 2212.69 1190.3 Q2211.16 1191.82 2209.03 1192.72 Q2206.92 1193.64 2204.57 1193.64 Q2201.46 1193.64 2198.8 1192.1 Q2196.16 1190.58 2194.62 1187.94 Q2193.08 1185.28 2193.08 1182.16 Q2193.08 1179.05 2194.62 1176.41 Q2196.16 1173.75 2198.8 1172.23 Q2201.46 1170.69 2204.57 1170.69 Q2206.92 1170.69 2209.03 1171.61 Q2211.16 1172.51 2212.69 1174.05 Q2214.23 1175.57 2215.13 1177.7 M2213.9 1186.12 Q2214.7 1184.23 2214.7 1182.16 Q2214.7 1180.1 2213.9 1178.23 Q2213.1 1176.34 2211.74 1175 Q2210.39 1173.64 2208.51 1172.84 Q2206.64 1172.03 2204.57 1172.03 Q2201.82 1172.03 2199.47 1173.39 Q2197.14 1174.74 2195.78 1177.08 Q2194.42 1179.41 2194.42 1182.16 Q2194.42 1184.92 2195.78 1187.26 Q2197.14 1189.59 2199.47 1190.94 Q2201.82 1192.3 2204.57 1192.3 Q2206.64 1192.3 2208.51 1191.49 Q2210.39 1190.69 2211.74 1189.35 Q2213.1 1187.98 2213.9 1186.12 M2205.82 1180.92 Q2206.34 1181.44 2206.34 1182.16 Q2206.34 1182.89 2205.82 1183.43 Q2205.29 1183.95 2204.57 1183.95 Q2203.85 1183.95 2203.31 1183.43 Q2202.78 1182.89 2202.78 1182.16 Q2202.78 1181.44 2203.31 1180.92 Q2203.85 1180.38 2204.57 1180.38 Q2205.29 1180.38 2205.82 1180.92 Z" fill="#000000" fill-rule="evenodd" fill-opacity="1" /><polyline clip-path="url(#clip550)" style="stroke:#e26f46; stroke-linecap:butt; stroke-linejoin:round; stroke-width:4; stroke-opacity:1; fill:none" points="
  1945.84,1221.8 2085.54,1221.8 
  "/>
<path clip-path="url(#clip550)" d="M2121.17 1211.45 Q2118.02 1211.45 2116.17 1213.6 Q2114.34 1215.76 2114.34 1219.51 Q2114.34 1223.23 2116.17 1225.41 Q2118.02 1227.56 2121.17 1227.56 Q2124.31 1227.56 2126.14 1225.41 Q2127.99 1223.23 2127.99 1219.51 Q2127.99 1215.76 2126.14 1213.6 Q2124.31 1211.45 2121.17 1211.45 M2130.45 1196.8 L2130.45 1201.06 Q2128.69 1200.22 2126.88 1199.78 Q2125.1 1199.34 2123.34 1199.34 Q2118.71 1199.34 2116.26 1202.47 Q2113.83 1205.59 2113.48 1211.91 Q2114.85 1209.9 2116.91 1208.83 Q2118.97 1207.75 2121.44 1207.75 Q2126.65 1207.75 2129.66 1210.92 Q2132.69 1214.07 2132.69 1219.51 Q2132.69 1224.83 2129.55 1228.05 Q2126.4 1231.26 2121.17 1231.26 Q2115.17 1231.26 2112 1226.68 Q2108.83 1222.07 2108.83 1213.35 Q2108.83 1205.15 2112.72 1200.29 Q2116.61 1195.41 2123.16 1195.41 Q2124.92 1195.41 2126.7 1195.76 Q2128.5 1196.1 2130.45 1196.8 Z" fill="#000000" fill-rule="evenodd" fill-opacity="1" /><path clip-path="url(#clip550)" d="M2180.76 1198.36 Q2180.76 1199.04 2180.45 1199.18 Q2180.17 1199.32 2179.23 1199.32 Q2178.13 1199.32 2177.45 1199.42 Q2176.77 1199.49 2176.35 1199.61 Q2175.93 1199.7 2175.67 1200.03 Q2175.44 1200.35 2175.35 1200.64 Q2175.25 1200.89 2175.09 1201.53 L2168.72 1227.08 Q2168.48 1227.95 2168.48 1228.25 Q2168.48 1228.56 2168.67 1228.74 Q2168.88 1228.93 2169.4 1229.02 Q2169.91 1229.09 2170.31 1229.12 Q2170.73 1229.12 2171.6 1229.12 Q2172.68 1229.12 2172.84 1229.3 Q2172.93 1229.42 2172.93 1229.63 Q2172.93 1230.08 2172.75 1230.31 Q2172.56 1230.52 2172.39 1230.57 Q2172.25 1230.59 2172.02 1230.59 Q2171.04 1230.59 2169.02 1230.52 Q2167.01 1230.45 2166.02 1230.45 L2160.07 1230.59 Q2159.37 1230.59 2159.37 1230.01 Q2159.37 1229.56 2159.56 1229.38 Q2159.75 1229.16 2159.96 1229.14 Q2160.17 1229.12 2160.71 1229.12 Q2162.63 1229.12 2163.45 1228.91 Q2164.29 1228.7 2164.52 1228.32 Q2164.78 1227.92 2165.06 1226.85 L2171.93 1199.37 L2171.88 1199.37 L2152.51 1229.73 L2152.37 1229.94 Q2152.23 1230.12 2152.18 1230.19 Q2152.13 1230.24 2151.99 1230.38 Q2151.88 1230.5 2151.74 1230.55 Q2151.62 1230.59 2151.46 1230.59 Q2151.17 1230.59 2151.01 1230.41 Q2150.87 1230.22 2150.82 1230.08 Q2150.8 1229.91 2150.73 1229.49 L2146.61 1199.75 L2146.56 1199.75 L2140.02 1225.89 Q2139.84 1226.61 2139.84 1226.99 Q2139.84 1227.95 2140.52 1228.53 Q2141.22 1229.09 2143.09 1229.12 Q2143.96 1229.12 2143.96 1229.63 Q2143.96 1230.59 2143.09 1230.59 Q2142.3 1230.59 2140.63 1230.52 Q2138.97 1230.45 2138.15 1230.45 Q2137.35 1230.45 2135.74 1230.52 Q2134.15 1230.59 2133.37 1230.59 Q2132.69 1230.59 2132.69 1230.01 Q2132.69 1229.12 2133.56 1229.12 Q2134.97 1229.07 2135.93 1228.79 Q2136.89 1228.51 2137.43 1227.97 Q2137.99 1227.43 2138.24 1226.89 Q2138.53 1226.33 2138.74 1225.51 L2144.83 1201.08 Q2145.01 1200.31 2145.01 1200.19 Q2145.01 1199.79 2144.78 1199.65 Q2144.57 1199.49 2143.96 1199.42 Q2142.79 1199.32 2141.9 1199.32 Q2141.31 1199.32 2141.08 1199.3 Q2140.87 1199.28 2140.68 1199.16 Q2140.52 1199.02 2140.52 1198.74 Q2140.52 1198.29 2140.7 1198.11 Q2140.91 1197.9 2141.15 1197.87 Q2141.38 1197.83 2141.95 1197.83 L2148.53 1197.83 Q2149.49 1197.83 2149.7 1197.99 Q2149.91 1198.13 2150 1198.93 L2153.75 1226.07 L2171.27 1198.74 Q2171.72 1198.06 2171.95 1197.94 Q2172.18 1197.83 2173.12 1197.83 L2179.47 1197.83 Q2179.98 1197.83 2180.19 1197.85 Q2180.41 1197.87 2180.57 1197.99 Q2180.76 1198.11 2180.76 1198.36 Z" fill="#000000" fill-rule="evenodd" fill-opacity="1" /><path clip-path="url(#clip550)" d="M2216.77 1229.54 Q2217.69 1231.66 2217.69 1234 Q2217.69 1236.35 2216.77 1238.48 Q2215.87 1240.6 2214.33 1242.14 Q2212.81 1243.66 2210.67 1244.56 Q2208.56 1245.48 2206.21 1245.48 Q2203.1 1245.48 2200.44 1243.94 Q2197.8 1242.42 2196.26 1239.78 Q2194.72 1237.12 2194.72 1234 Q2194.72 1230.89 2196.26 1228.25 Q2197.8 1225.59 2200.44 1224.07 Q2203.1 1222.53 2206.21 1222.53 Q2208.56 1222.53 2210.67 1223.45 Q2212.81 1224.35 2214.33 1225.89 Q2215.87 1227.41 2216.77 1229.54 M2215.54 1237.96 Q2216.35 1236.07 2216.35 1234 Q2216.35 1231.94 2215.54 1230.07 Q2214.74 1228.18 2213.38 1226.84 Q2212.03 1225.48 2210.15 1224.68 Q2208.28 1223.87 2206.21 1223.87 Q2203.46 1223.87 2201.12 1225.23 Q2198.79 1226.58 2197.43 1228.92 Q2196.07 1231.25 2196.07 1234 Q2196.07 1236.76 2197.43 1239.1 Q2198.79 1241.43 2201.12 1242.78 Q2203.46 1244.14 2206.21 1244.14 Q2208.28 1244.14 2210.15 1243.33 Q2212.03 1242.53 2213.38 1241.19 Q2214.74 1239.82 2215.54 1237.96 M2207.46 1232.76 Q2207.98 1233.28 2207.98 1234 Q2207.98 1234.73 2207.46 1235.27 Q2206.94 1235.79 2206.21 1235.79 Q2205.49 1235.79 2204.95 1235.27 Q2204.43 1234.73 2204.43 1234 Q2204.43 1233.28 2204.95 1232.76 Q2205.49 1232.22 2206.21 1232.22 Q2206.94 1232.22 2207.46 1232.76 Z" fill="#000000" fill-rule="evenodd" fill-opacity="1" /><polyline clip-path="url(#clip550)" style="stroke:#3da44d; stroke-linecap:butt; stroke-linejoin:round; stroke-width:4; stroke-opacity:1; fill:none" points="
  1945.84,1273.64 2085.54,1273.64 
  "/>
<path clip-path="url(#clip550)" d="M2110.29 1247.87 L2128.64 1247.87 L2128.64 1251.81 L2114.57 1251.81 L2114.57 1260.28 Q2115.59 1259.93 2116.61 1259.77 Q2117.62 1259.59 2118.64 1259.59 Q2124.43 1259.59 2127.81 1262.76 Q2131.19 1265.93 2131.19 1271.35 Q2131.19 1276.92 2127.72 1280.03 Q2124.24 1283.1 2117.93 1283.1 Q2115.75 1283.1 2113.48 1282.73 Q2111.24 1282.36 2108.83 1281.62 L2108.83 1276.92 Q2110.91 1278.06 2113.13 1278.61 Q2115.36 1279.17 2117.83 1279.17 Q2121.84 1279.17 2124.18 1277.06 Q2126.51 1274.96 2126.51 1271.35 Q2126.51 1267.73 2124.18 1265.63 Q2121.84 1263.52 2117.83 1263.52 Q2115.96 1263.52 2114.08 1263.94 Q2112.23 1264.35 2110.29 1265.23 L2110.29 1247.87 Z" fill="#000000" fill-rule="evenodd" fill-opacity="1" /><path clip-path="url(#clip550)" d="M2179.25 1250.2 Q2179.25 1250.88 2178.95 1251.02 Q2178.67 1251.16 2177.73 1251.16 Q2176.63 1251.16 2175.95 1251.26 Q2175.27 1251.33 2174.85 1251.45 Q2174.43 1251.54 2174.17 1251.87 Q2173.94 1252.19 2173.84 1252.48 Q2173.75 1252.73 2173.58 1253.37 L2167.21 1278.92 Q2166.98 1279.79 2166.98 1280.09 Q2166.98 1280.4 2167.17 1280.58 Q2167.38 1280.77 2167.89 1280.86 Q2168.41 1280.93 2168.81 1280.96 Q2169.23 1280.96 2170.09 1280.96 Q2171.17 1280.96 2171.34 1281.14 Q2171.43 1281.26 2171.43 1281.47 Q2171.43 1281.92 2171.24 1282.15 Q2171.05 1282.36 2170.89 1282.41 Q2170.75 1282.43 2170.52 1282.43 Q2169.53 1282.43 2167.52 1282.36 Q2165.5 1282.29 2164.52 1282.29 L2158.57 1282.43 Q2157.87 1282.43 2157.87 1281.85 Q2157.87 1281.4 2158.05 1281.22 Q2158.24 1281 2158.45 1280.98 Q2158.66 1280.96 2159.2 1280.96 Q2161.12 1280.96 2161.94 1280.75 Q2162.79 1280.54 2163.02 1280.16 Q2163.28 1279.76 2163.56 1278.69 L2170.42 1251.21 L2170.37 1251.21 L2151 1281.57 L2150.86 1281.78 Q2150.72 1281.96 2150.68 1282.03 Q2150.63 1282.08 2150.49 1282.22 Q2150.37 1282.34 2150.23 1282.39 Q2150.11 1282.43 2149.95 1282.43 Q2149.67 1282.43 2149.51 1282.25 Q2149.36 1282.06 2149.32 1281.92 Q2149.29 1281.75 2149.22 1281.33 L2145.1 1251.59 L2145.06 1251.59 L2138.52 1277.73 Q2138.33 1278.45 2138.33 1278.83 Q2138.33 1279.79 2139.01 1280.37 Q2139.71 1280.93 2141.59 1280.96 Q2142.46 1280.96 2142.46 1281.47 Q2142.46 1282.43 2141.59 1282.43 Q2140.79 1282.43 2139.13 1282.36 Q2137.47 1282.29 2136.65 1282.29 Q2135.85 1282.29 2134.23 1282.36 Q2132.64 1282.43 2131.87 1282.43 Q2131.19 1282.43 2131.19 1281.85 Q2131.19 1280.96 2132.06 1280.96 Q2133.46 1280.91 2134.42 1280.63 Q2135.38 1280.35 2135.92 1279.81 Q2136.48 1279.27 2136.74 1278.73 Q2137.02 1278.17 2137.23 1277.35 L2143.32 1252.92 Q2143.51 1252.15 2143.51 1252.03 Q2143.51 1251.63 2143.28 1251.49 Q2143.06 1251.33 2142.46 1251.26 Q2141.28 1251.16 2140.39 1251.16 Q2139.81 1251.16 2139.57 1251.14 Q2139.36 1251.12 2139.18 1251 Q2139.01 1250.86 2139.01 1250.58 Q2139.01 1250.13 2139.2 1249.95 Q2139.41 1249.74 2139.64 1249.71 Q2139.88 1249.67 2140.44 1249.67 L2147.02 1249.67 Q2147.98 1249.67 2148.19 1249.83 Q2148.4 1249.97 2148.5 1250.77 L2152.25 1277.91 L2169.77 1250.58 Q2170.21 1249.9 2170.45 1249.78 Q2170.68 1249.67 2171.62 1249.67 L2177.96 1249.67 Q2178.48 1249.67 2178.69 1249.69 Q2178.9 1249.71 2179.06 1249.83 Q2179.25 1249.95 2179.25 1250.2 Z" fill="#000000" fill-rule="evenodd" fill-opacity="1" /><path clip-path="url(#clip550)" d="M2215.27 1281.38 Q2216.19 1283.5 2216.19 1285.84 Q2216.19 1288.19 2215.27 1290.32 Q2214.37 1292.44 2212.83 1293.98 Q2211.3 1295.5 2209.17 1296.4 Q2207.05 1297.32 2204.71 1297.32 Q2201.59 1297.32 2198.94 1295.78 Q2196.3 1294.26 2194.76 1291.62 Q2193.22 1288.96 2193.22 1285.84 Q2193.22 1282.73 2194.76 1280.09 Q2196.3 1277.43 2198.94 1275.91 Q2201.59 1274.37 2204.71 1274.37 Q2207.05 1274.37 2209.17 1275.29 Q2211.3 1276.19 2212.83 1277.73 Q2214.37 1279.25 2215.27 1281.38 M2214.04 1289.8 Q2214.84 1287.91 2214.84 1285.84 Q2214.84 1283.78 2214.04 1281.91 Q2213.24 1280.02 2211.87 1278.68 Q2210.53 1277.32 2208.64 1276.52 Q2206.78 1275.71 2204.71 1275.71 Q2201.96 1275.71 2199.61 1277.07 Q2197.28 1278.42 2195.92 1280.76 Q2194.56 1283.09 2194.56 1285.84 Q2194.56 1288.6 2195.92 1290.94 Q2197.28 1293.27 2199.61 1294.62 Q2201.96 1295.98 2204.71 1295.98 Q2206.78 1295.98 2208.64 1295.17 Q2210.53 1294.37 2211.87 1293.03 Q2213.24 1291.66 2214.04 1289.8 M2205.96 1284.6 Q2206.48 1285.12 2206.48 1285.84 Q2206.48 1286.57 2205.96 1287.11 Q2205.43 1287.63 2204.71 1287.63 Q2203.99 1287.63 2203.45 1287.11 Q2202.92 1286.57 2202.92 1285.84 Q2202.92 1285.12 2203.45 1284.6 Q2203.99 1284.06 2204.71 1284.06 Q2205.43 1284.06 2205.96 1284.6 Z" fill="#000000" fill-rule="evenodd" fill-opacity="1" /><polyline clip-path="url(#clip550)" style="stroke:#c271d2; stroke-linecap:butt; stroke-linejoin:round; stroke-width:4; stroke-opacity:1; fill:none" points="
  1945.84,1325.48 2085.54,1325.48 
  "/>
<path clip-path="url(#clip550)" d="M2124.43 1303.79 L2112.62 1322.24 L2124.43 1322.24 L2124.43 1303.79 M2123.2 1299.71 L2129.08 1299.71 L2129.08 1322.24 L2134.01 1322.24 L2134.01 1326.13 L2129.08 1326.13 L2129.08 1334.27 L2124.43 1334.27 L2124.43 1326.13 L2108.83 1326.13 L2108.83 1321.61 L2123.2 1299.71 Z" fill="#000000" fill-rule="evenodd" fill-opacity="1" /><path clip-path="url(#clip550)" d="M2182.08 1302.04 Q2182.08 1302.72 2181.77 1302.86 Q2181.49 1303 2180.55 1303 Q2179.45 1303 2178.77 1303.1 Q2178.09 1303.17 2177.67 1303.29 Q2177.25 1303.38 2176.99 1303.71 Q2176.76 1304.03 2176.67 1304.32 Q2176.57 1304.57 2176.41 1305.21 L2170.04 1330.76 Q2169.8 1331.63 2169.8 1331.93 Q2169.8 1332.24 2169.99 1332.42 Q2170.2 1332.61 2170.72 1332.7 Q2171.23 1332.77 2171.63 1332.8 Q2172.05 1332.8 2172.92 1332.8 Q2174 1332.8 2174.16 1332.98 Q2174.25 1333.1 2174.25 1333.31 Q2174.25 1333.76 2174.07 1333.99 Q2173.88 1334.2 2173.71 1334.25 Q2173.57 1334.27 2173.34 1334.27 Q2172.36 1334.27 2170.34 1334.2 Q2168.33 1334.13 2167.34 1334.13 L2161.39 1334.27 Q2160.69 1334.27 2160.69 1333.69 Q2160.69 1333.24 2160.88 1333.06 Q2161.07 1332.84 2161.28 1332.82 Q2161.49 1332.8 2162.03 1332.8 Q2163.95 1332.8 2164.77 1332.59 Q2165.61 1332.38 2165.84 1332 Q2166.1 1331.6 2166.38 1330.53 L2173.25 1303.05 L2173.2 1303.05 L2153.83 1333.41 L2153.69 1333.62 Q2153.55 1333.8 2153.5 1333.87 Q2153.45 1333.92 2153.31 1334.06 Q2153.2 1334.18 2153.06 1334.23 Q2152.94 1334.27 2152.77 1334.27 Q2152.49 1334.27 2152.33 1334.09 Q2152.19 1333.9 2152.14 1333.76 Q2152.12 1333.59 2152.05 1333.17 L2147.93 1303.43 L2147.88 1303.43 L2141.34 1329.57 Q2141.16 1330.29 2141.16 1330.67 Q2141.16 1331.63 2141.84 1332.21 Q2142.54 1332.77 2144.41 1332.8 Q2145.28 1332.8 2145.28 1333.31 Q2145.28 1334.27 2144.41 1334.27 Q2143.62 1334.27 2141.95 1334.2 Q2140.29 1334.13 2139.47 1334.13 Q2138.67 1334.13 2137.06 1334.2 Q2135.47 1334.27 2134.69 1334.27 Q2134.01 1334.27 2134.01 1333.69 Q2134.01 1332.8 2134.88 1332.8 Q2136.29 1332.75 2137.25 1332.47 Q2138.21 1332.19 2138.74 1331.65 Q2139.31 1331.11 2139.56 1330.57 Q2139.85 1330.01 2140.06 1329.19 L2146.15 1304.76 Q2146.33 1303.99 2146.33 1303.87 Q2146.33 1303.47 2146.1 1303.33 Q2145.89 1303.17 2145.28 1303.1 Q2144.11 1303 2143.22 1303 Q2142.63 1303 2142.4 1302.98 Q2142.19 1302.96 2142 1302.84 Q2141.84 1302.7 2141.84 1302.42 Q2141.84 1301.97 2142.02 1301.79 Q2142.23 1301.58 2142.47 1301.55 Q2142.7 1301.51 2143.26 1301.51 L2149.85 1301.51 Q2150.81 1301.51 2151.02 1301.67 Q2151.23 1301.81 2151.32 1302.61 L2155.07 1329.75 L2172.59 1302.42 Q2173.03 1301.74 2173.27 1301.62 Q2173.5 1301.51 2174.44 1301.51 L2180.79 1301.51 Q2181.3 1301.51 2181.51 1301.53 Q2181.72 1301.55 2181.89 1301.67 Q2182.08 1301.79 2182.08 1302.04 Z" fill="#000000" fill-rule="evenodd" fill-opacity="1" /><path clip-path="url(#clip550)" d="M2218.09 1333.22 Q2219.01 1335.34 2219.01 1337.68 Q2219.01 1340.03 2218.09 1342.16 Q2217.19 1344.28 2215.65 1345.82 Q2214.12 1347.34 2211.99 1348.24 Q2209.88 1349.16 2207.53 1349.16 Q2204.42 1349.16 2201.76 1347.62 Q2199.12 1346.1 2197.58 1343.46 Q2196.04 1340.8 2196.04 1337.68 Q2196.04 1334.57 2197.58 1331.93 Q2199.12 1329.27 2201.76 1327.75 Q2204.42 1326.21 2207.53 1326.21 Q2209.88 1326.21 2211.99 1327.13 Q2214.12 1328.03 2215.65 1329.57 Q2217.19 1331.09 2218.09 1333.22 M2216.86 1341.64 Q2217.67 1339.75 2217.67 1337.68 Q2217.67 1335.62 2216.86 1333.75 Q2216.06 1331.86 2214.7 1330.52 Q2213.35 1329.16 2211.47 1328.36 Q2209.6 1327.55 2207.53 1327.55 Q2204.78 1327.55 2202.43 1328.91 Q2200.11 1330.26 2198.75 1332.6 Q2197.38 1334.93 2197.38 1337.68 Q2197.38 1340.44 2198.75 1342.78 Q2200.11 1345.11 2202.43 1346.46 Q2204.78 1347.82 2207.53 1347.82 Q2209.6 1347.82 2211.47 1347.01 Q2213.35 1346.21 2214.7 1344.87 Q2216.06 1343.5 2216.86 1341.64 M2208.78 1336.44 Q2209.3 1336.96 2209.3 1337.68 Q2209.3 1338.41 2208.78 1338.95 Q2208.25 1339.47 2207.53 1339.47 Q2206.81 1339.47 2206.27 1338.95 Q2205.75 1338.41 2205.75 1337.68 Q2205.75 1336.96 2206.27 1336.44 Q2206.81 1335.9 2207.53 1335.9 Q2208.25 1335.9 2208.78 1336.44 Z" fill="#000000" fill-rule="evenodd" fill-opacity="1" /></svg>
