<?xml version="1.0" encoding="utf-8"?>
<svg xmlns="http://www.w3.org/2000/svg" xmlns:xlink="http://www.w3.org/1999/xlink" width="365" height="273.75" viewBox="0 0 1460 1095">
<defs>
  <clipPath id="clip540">
    <rect x="0" y="0" width="1460" height="1095"/>
  </clipPath>
</defs>
<path clip-path="url(#clip540)" d="
M0 1095 L1460 1095 L1460 0 L0 0  Z
  " fill="#ffffff" fill-rule="evenodd" fill-opacity="1"/>
<defs>
  <clipPath id="clip541">
    <rect x="292" y="0" width="1023" height="1023"/>
  </clipPath>
</defs>
<defs>
  <clipPath id="clip542">
    <rect x="253" y="47" width="1160" height="867"/>
  </clipPath>
</defs>
<path clip-path="url(#clip540)" d="
M253.44 912.989 L1412.76 912.989 L1412.76 47.2389 L253.44 47.2389  Z
  " fill="#ffffff" fill-rule="evenodd" fill-opacity="1"/>
<polyline clip-path="url(#clip540)" style="stroke:#000000; stroke-linecap:butt; stroke-linejoin:round; stroke-width:3.99956; stroke-opacity:1; fill:none" points="
  253.44,912.989 1412.76,912.989 
  "/>
<polyline clip-path="url(#clip540)" style="stroke:#000000; stroke-linecap:butt; stroke-linejoin:round; stroke-width:3.99956; stroke-opacity:1; fill:none" points="
  253.44,47.2389 1412.76,47.2389 
  "/>
<polyline clip-path="url(#clip540)" style="stroke:#000000; stroke-linecap:butt; stroke-linejoin:round; stroke-width:3.99956; stroke-opacity:1; fill:none" points="
  442.494,912.989 442.494,894.093 
  "/>
<polyline clip-path="url(#clip540)" style="stroke:#000000; stroke-linecap:butt; stroke-linejoin:round; stroke-width:3.99956; stroke-opacity:1; fill:none" points="
  754.979,912.989 754.979,894.093 
  "/>
<polyline clip-path="url(#clip540)" style="stroke:#000000; stroke-linecap:butt; stroke-linejoin:round; stroke-width:3.99956; stroke-opacity:1; fill:none" points="
  1067.46,912.989 1067.46,894.093 
  "/>
<polyline clip-path="url(#clip540)" style="stroke:#000000; stroke-linecap:butt; stroke-linejoin:round; stroke-width:3.99956; stroke-opacity:1; fill:none" points="
  1379.95,912.989 1379.95,894.093 
  "/>
<polyline clip-path="url(#clip540)" style="stroke:#000000; stroke-linecap:butt; stroke-linejoin:round; stroke-width:3.99956; stroke-opacity:1; fill:none" points="
  286.251,912.989 286.251,903.541 
  "/>
<polyline clip-path="url(#clip540)" style="stroke:#000000; stroke-linecap:butt; stroke-linejoin:round; stroke-width:3.99956; stroke-opacity:1; fill:none" points="
  364.373,912.989 364.373,903.541 
  "/>
<polyline clip-path="url(#clip540)" style="stroke:#000000; stroke-linecap:butt; stroke-linejoin:round; stroke-width:3.99956; stroke-opacity:1; fill:none" points="
  520.615,912.989 520.615,903.541 
  "/>
<polyline clip-path="url(#clip540)" style="stroke:#000000; stroke-linecap:butt; stroke-linejoin:round; stroke-width:3.99956; stroke-opacity:1; fill:none" points="
  598.737,912.989 598.737,903.541 
  "/>
<polyline clip-path="url(#clip540)" style="stroke:#000000; stroke-linecap:butt; stroke-linejoin:round; stroke-width:3.99956; stroke-opacity:1; fill:none" points="
  676.858,912.989 676.858,903.541 
  "/>
<polyline clip-path="url(#clip540)" style="stroke:#000000; stroke-linecap:butt; stroke-linejoin:round; stroke-width:3.99956; stroke-opacity:1; fill:none" points="
  833.101,912.989 833.101,903.541 
  "/>
<polyline clip-path="url(#clip540)" style="stroke:#000000; stroke-linecap:butt; stroke-linejoin:round; stroke-width:3.99956; stroke-opacity:1; fill:none" points="
  911.222,912.989 911.222,903.541 
  "/>
<polyline clip-path="url(#clip540)" style="stroke:#000000; stroke-linecap:butt; stroke-linejoin:round; stroke-width:3.99956; stroke-opacity:1; fill:none" points="
  989.343,912.989 989.343,903.541 
  "/>
<polyline clip-path="url(#clip540)" style="stroke:#000000; stroke-linecap:butt; stroke-linejoin:round; stroke-width:3.99956; stroke-opacity:1; fill:none" points="
  1145.59,912.989 1145.59,903.541 
  "/>
<polyline clip-path="url(#clip540)" style="stroke:#000000; stroke-linecap:butt; stroke-linejoin:round; stroke-width:3.99956; stroke-opacity:1; fill:none" points="
  1223.71,912.989 1223.71,903.541 
  "/>
<polyline clip-path="url(#clip540)" style="stroke:#000000; stroke-linecap:butt; stroke-linejoin:round; stroke-width:3.99956; stroke-opacity:1; fill:none" points="
  1301.83,912.989 1301.83,903.541 
  "/>
<path clip-path="url(#clip540)" d="M447.607 958.23 Q447.941 958.563 447.941 959.036 Q447.941 959.508 447.607 959.842 Q447.274 960.175 446.801 960.175 L411.177 960.175 Q410.704 960.175 410.371 959.842 Q410.037 959.508 410.037 959.036 Q410.037 958.563 410.371 958.23 Q410.704 957.896 411.177 957.896 L446.801 957.896 Q447.274 957.896 447.607 958.23 Z" fill="#000000" fill-rule="evenodd" fill-opacity="1" /><path clip-path="url(#clip540)" d="M456.166 940.779 L456.166 939 Q463.002 939 466.531 935.36 Q467.503 935.36 467.67 935.582 Q467.837 935.805 467.837 936.833 L467.837 968.762 Q467.837 970.457 468.671 970.985 Q469.504 971.513 473.144 971.513 L474.951 971.513 L474.951 973.263 Q472.95 973.097 465.725 973.097 Q458.5 973.097 456.527 973.263 L456.527 971.513 L458.333 971.513 Q461.918 971.513 462.779 971.012 Q463.641 970.484 463.641 968.762 L463.641 939.278 Q460.668 940.779 456.166 940.779 Z" fill="#000000" fill-rule="evenodd" fill-opacity="1" /><path clip-path="url(#clip540)" d="M743.003 955.062 Q743.003 946.698 745.115 942.14 Q748.06 935.36 755.007 935.36 Q756.48 935.36 758.008 935.777 Q759.564 936.166 761.51 937.694 Q763.483 939.223 764.677 941.724 Q766.956 946.559 766.956 955.062 Q766.956 963.371 764.844 967.9 Q761.76 974.514 754.952 974.514 Q752.395 974.514 749.783 973.208 Q747.199 971.902 745.559 968.762 Q743.003 964.065 743.003 955.062 M747.727 954.367 Q747.727 962.954 748.338 966.372 Q749.033 970.068 750.922 971.679 Q752.84 973.263 754.952 973.263 Q757.23 973.263 759.12 971.568 Q761.037 969.845 761.621 966.149 Q762.26 962.509 762.232 954.367 Q762.232 946.448 761.676 943.28 Q760.926 939.584 758.925 938.111 Q756.952 936.611 754.952 936.611 Q754.201 936.611 753.395 936.833 Q752.617 937.055 751.478 937.694 Q750.339 938.333 749.45 939.917 Q748.588 941.501 748.171 943.891 Q747.727 946.976 747.727 954.367 Z" fill="#000000" fill-rule="evenodd" fill-opacity="1" /><path clip-path="url(#clip540)" d="M1058.07 940.779 L1058.07 939 Q1064.91 939 1068.44 935.36 Q1069.41 935.36 1069.58 935.582 Q1069.74 935.805 1069.74 936.833 L1069.74 968.762 Q1069.74 970.457 1070.58 970.985 Q1071.41 971.513 1075.05 971.513 L1076.86 971.513 L1076.86 973.263 Q1074.86 973.097 1067.63 973.097 Q1060.41 973.097 1058.43 973.263 L1058.43 971.513 L1060.24 971.513 Q1063.82 971.513 1064.69 971.012 Q1065.55 970.484 1065.55 968.762 L1065.55 939.278 Q1062.57 940.779 1058.07 940.779 Z" fill="#000000" fill-rule="evenodd" fill-opacity="1" /><path clip-path="url(#clip540)" d="M1368.58 973.263 Q1368.58 972.235 1368.67 971.929 Q1368.78 971.624 1369.22 971.151 L1380.14 958.98 Q1386.12 952.255 1386.12 946.392 Q1386.12 942.585 1384.12 939.862 Q1382.15 937.139 1378.51 937.139 Q1376 937.139 1373.89 938.667 Q1371.78 940.195 1370.81 942.919 Q1370.97 942.863 1371.56 942.863 Q1372.98 942.863 1373.75 943.752 Q1374.56 944.641 1374.56 945.836 Q1374.56 947.365 1373.56 948.115 Q1372.59 948.837 1371.61 948.837 Q1371.22 948.837 1370.7 948.754 Q1370.2 948.671 1369.39 947.893 Q1368.58 947.087 1368.58 945.67 Q1368.58 941.696 1371.59 938.528 Q1374.61 935.36 1379.23 935.36 Q1384.45 935.36 1387.87 938.472 Q1391.32 941.557 1391.32 946.392 Q1391.32 948.087 1390.79 949.643 Q1390.29 951.172 1389.59 952.367 Q1388.93 953.561 1387.09 955.479 Q1385.26 957.396 1383.78 958.758 Q1382.31 960.119 1379.01 963.009 L1372.98 968.873 L1383.23 968.873 Q1388.23 968.873 1388.62 968.428 Q1389.18 967.622 1389.87 963.371 L1391.32 963.371 L1389.7 973.263 L1368.58 973.263 Z" fill="#000000" fill-rule="evenodd" fill-opacity="1" /><path clip-path="url(#clip540)" d="M815.44 1011.42 Q815.44 1013.06 814.416 1014 Q813.391 1014.9 812.22 1014.9 Q811.108 1014.9 810.522 1014.26 Q809.937 1013.62 809.937 1012.8 Q809.937 1011.68 810.756 1010.72 Q811.576 1009.75 812.806 1009.55 Q811.605 1008.79 809.82 1008.79 Q808.649 1008.79 807.624 1009.4 Q806.629 1010.01 806.014 1010.81 Q805.428 1011.6 804.902 1012.74 Q804.404 1013.85 804.199 1014.52 Q804.023 1015.17 803.877 1015.87 L801.828 1024.07 Q800.832 1027.96 800.832 1029.34 Q800.832 1031.03 801.652 1032.18 Q802.472 1033.29 804.111 1033.29 Q804.755 1033.29 805.487 1033.11 Q806.219 1032.91 807.156 1032.38 Q808.122 1031.82 808.971 1031 Q809.849 1030.16 810.698 1028.72 Q811.547 1027.29 812.103 1025.44 Q812.279 1024.8 812.864 1024.8 Q813.596 1024.8 813.596 1025.38 Q813.596 1025.88 813.186 1026.94 Q812.806 1027.96 811.957 1029.31 Q811.137 1030.62 810.054 1031.82 Q808.971 1033 807.361 1033.82 Q805.75 1034.64 803.994 1034.64 Q801.476 1034.64 799.808 1033.29 Q798.139 1031.94 797.524 1030.07 Q797.378 1030.33 797.173 1030.68 Q796.968 1031.03 796.353 1031.82 Q795.768 1032.59 795.094 1033.17 Q794.421 1033.73 793.367 1034.17 Q792.343 1034.64 791.23 1034.64 Q789.825 1034.64 788.566 1034.23 Q787.337 1033.82 786.458 1032.88 Q785.58 1031.94 785.58 1030.65 Q785.58 1029.22 786.546 1028.22 Q787.542 1027.2 788.888 1027.2 Q789.737 1027.2 790.41 1027.7 Q791.113 1028.19 791.113 1029.28 Q791.113 1030.48 790.293 1031.39 Q789.474 1032.29 788.303 1032.53 Q789.503 1033.29 791.289 1033.29 Q793.221 1033.29 794.743 1031.59 Q796.265 1029.89 796.997 1027.05 Q798.812 1020.23 799.515 1017.19 Q800.218 1014.11 800.218 1012.8 Q800.218 1011.57 799.896 1010.72 Q799.573 1009.87 799.017 1009.49 Q798.49 1009.08 797.993 1008.93 Q797.524 1008.79 796.997 1008.79 Q796.119 1008.79 795.124 1009.14 Q794.158 1009.49 792.987 1010.31 Q791.845 1011.1 790.762 1012.74 Q789.679 1014.38 788.947 1016.63 Q788.8 1017.3 788.156 1017.3 Q787.454 1017.28 787.454 1016.69 Q787.454 1016.19 787.834 1015.17 Q788.244 1014.11 789.064 1012.8 Q789.913 1011.48 790.996 1010.31 Q792.108 1009.11 793.719 1008.29 Q795.358 1007.47 797.114 1007.47 Q797.905 1007.47 798.666 1007.64 Q799.456 1007.79 800.393 1008.23 Q801.359 1008.67 802.208 1009.63 Q803.057 1010.6 803.584 1012.01 Q803.935 1011.33 804.404 1010.69 Q804.902 1010.04 805.663 1009.25 Q806.453 1008.43 807.536 1007.97 Q808.649 1007.47 809.878 1007.47 Q811.079 1007.47 812.25 1007.79 Q813.42 1008.08 814.416 1009.05 Q815.44 1009.99 815.44 1011.42 Z" fill="#000000" fill-rule="evenodd" fill-opacity="1" /><path clip-path="url(#clip540)" d="M819.532 1048.1 Q819.532 1047.81 819.766 1047.16 L840.932 990.606 Q840.932 990.547 841.078 990.225 Q841.224 989.903 841.312 989.698 Q841.4 989.464 841.576 989.288 Q841.781 989.113 842.015 989.113 Q842.6 989.113 842.6 989.845 Q842.6 989.903 842.425 990.606 L821.2 1047.22 Q820.849 1048.25 820.615 1048.54 Q820.41 1048.83 820.059 1048.83 Q819.532 1048.83 819.532 1048.1 Z" fill="#000000" fill-rule="evenodd" fill-opacity="1" /><path clip-path="url(#clip540)" d="M876.681 1025.38 Q875.891 1029.16 874.866 1031.33 Q873.227 1034.64 870.445 1034.64 Q868.338 1034.64 866.845 1033.35 Q865.352 1032.06 865 1030.13 Q861.165 1034.64 857.184 1034.64 Q853.671 1034.64 851.446 1031.97 Q849.221 1029.28 849.221 1025.03 Q849.221 1020.76 851.329 1016.66 Q853.466 1012.56 856.833 1010.01 Q860.199 1007.47 863.654 1007.47 Q867.313 1007.47 869.187 1011.3 Q869.333 1010.25 870.006 1009.46 Q870.68 1008.67 871.704 1008.67 Q872.495 1008.67 872.963 1009.11 Q873.432 1009.52 873.432 1010.28 Q873.432 1010.66 873.022 1012.33 L870.855 1020.7 L869.538 1026.12 Q869.04 1028.11 868.894 1028.84 Q868.777 1029.57 868.777 1030.54 Q868.777 1033.29 870.563 1033.29 Q871.441 1033.29 872.143 1032.73 Q872.846 1032.18 873.402 1031 Q873.958 1029.83 874.31 1028.75 Q874.661 1027.64 875.129 1025.88 Q875.276 1025.18 875.393 1025 Q875.539 1024.8 875.949 1024.8 Q876.681 1024.8 876.681 1025.38 M868.455 1014.05 Q868.455 1013.79 868.25 1013.06 Q868.045 1012.33 867.577 1011.3 Q867.108 1010.28 866.084 1009.55 Q865.088 1008.79 863.742 1008.79 Q861.926 1008.79 860.024 1010.34 Q858.15 1011.89 856.774 1014.52 Q855.72 1016.63 854.579 1021.05 Q853.466 1025.47 853.466 1027.67 Q853.466 1029.01 853.759 1030.21 Q854.081 1031.39 854.988 1032.35 Q855.896 1033.29 857.301 1033.29 Q860.726 1033.29 864.093 1029.04 Q864.737 1028.31 864.883 1028.02 Q865.059 1027.7 865.293 1026.82 L868.279 1015.08 Q868.455 1014.2 868.455 1014.05 Z" fill="#000000" fill-rule="evenodd" fill-opacity="1" /><polyline clip-path="url(#clip540)" style="stroke:#000000; stroke-linecap:butt; stroke-linejoin:round; stroke-width:3.99956; stroke-opacity:1; fill:none" points="
  253.44,912.989 253.44,47.2389 
  "/>
<polyline clip-path="url(#clip540)" style="stroke:#000000; stroke-linecap:butt; stroke-linejoin:round; stroke-width:3.99956; stroke-opacity:1; fill:none" points="
  1412.76,912.989 1412.76,47.2389 
  "/>
<polyline clip-path="url(#clip540)" style="stroke:#000000; stroke-linecap:butt; stroke-linejoin:round; stroke-width:3.99956; stroke-opacity:1; fill:none" points="
  253.44,912.989 272.336,912.989 
  "/>
<polyline clip-path="url(#clip540)" style="stroke:#000000; stroke-linecap:butt; stroke-linejoin:round; stroke-width:3.99956; stroke-opacity:1; fill:none" points="
  253.44,696.551 272.336,696.551 
  "/>
<polyline clip-path="url(#clip540)" style="stroke:#000000; stroke-linecap:butt; stroke-linejoin:round; stroke-width:3.99956; stroke-opacity:1; fill:none" points="
  253.44,480.114 272.336,480.114 
  "/>
<polyline clip-path="url(#clip540)" style="stroke:#000000; stroke-linecap:butt; stroke-linejoin:round; stroke-width:3.99956; stroke-opacity:1; fill:none" points="
  253.44,263.676 272.336,263.676 
  "/>
<polyline clip-path="url(#clip540)" style="stroke:#000000; stroke-linecap:butt; stroke-linejoin:round; stroke-width:3.99956; stroke-opacity:1; fill:none" points="
  253.44,47.2389 272.336,47.2389 
  "/>
<polyline clip-path="url(#clip540)" style="stroke:#000000; stroke-linecap:butt; stroke-linejoin:round; stroke-width:3.99956; stroke-opacity:1; fill:none" points="
  253.44,858.879 262.888,858.879 
  "/>
<polyline clip-path="url(#clip540)" style="stroke:#000000; stroke-linecap:butt; stroke-linejoin:round; stroke-width:3.99956; stroke-opacity:1; fill:none" points="
  253.44,804.77 262.888,804.77 
  "/>
<polyline clip-path="url(#clip540)" style="stroke:#000000; stroke-linecap:butt; stroke-linejoin:round; stroke-width:3.99956; stroke-opacity:1; fill:none" points="
  253.44,750.661 262.888,750.661 
  "/>
<polyline clip-path="url(#clip540)" style="stroke:#000000; stroke-linecap:butt; stroke-linejoin:round; stroke-width:3.99956; stroke-opacity:1; fill:none" points="
  253.44,642.442 262.888,642.442 
  "/>
<polyline clip-path="url(#clip540)" style="stroke:#000000; stroke-linecap:butt; stroke-linejoin:round; stroke-width:3.99956; stroke-opacity:1; fill:none" points="
  253.44,588.332 262.888,588.332 
  "/>
<polyline clip-path="url(#clip540)" style="stroke:#000000; stroke-linecap:butt; stroke-linejoin:round; stroke-width:3.99956; stroke-opacity:1; fill:none" points="
  253.44,534.223 262.888,534.223 
  "/>
<polyline clip-path="url(#clip540)" style="stroke:#000000; stroke-linecap:butt; stroke-linejoin:round; stroke-width:3.99956; stroke-opacity:1; fill:none" points="
  253.44,426.004 262.888,426.004 
  "/>
<polyline clip-path="url(#clip540)" style="stroke:#000000; stroke-linecap:butt; stroke-linejoin:round; stroke-width:3.99956; stroke-opacity:1; fill:none" points="
  253.44,371.895 262.888,371.895 
  "/>
<polyline clip-path="url(#clip540)" style="stroke:#000000; stroke-linecap:butt; stroke-linejoin:round; stroke-width:3.99956; stroke-opacity:1; fill:none" points="
  253.44,317.786 262.888,317.786 
  "/>
<polyline clip-path="url(#clip540)" style="stroke:#000000; stroke-linecap:butt; stroke-linejoin:round; stroke-width:3.99956; stroke-opacity:1; fill:none" points="
  253.44,209.567 262.888,209.567 
  "/>
<polyline clip-path="url(#clip540)" style="stroke:#000000; stroke-linecap:butt; stroke-linejoin:round; stroke-width:3.99956; stroke-opacity:1; fill:none" points="
  253.44,155.458 262.888,155.458 
  "/>
<polyline clip-path="url(#clip540)" style="stroke:#000000; stroke-linecap:butt; stroke-linejoin:round; stroke-width:3.99956; stroke-opacity:1; fill:none" points="
  253.44,101.348 262.888,101.348 
  "/>
<path clip-path="url(#clip540)" d="M157.596 917.393 Q157.929 917.726 157.929 918.199 Q157.929 918.671 157.596 919.005 Q157.262 919.338 156.79 919.338 L121.166 919.338 Q120.693 919.338 120.36 919.005 Q120.026 918.671 120.026 918.199 Q120.026 917.726 120.36 917.393 Q120.693 917.06 121.166 917.06 L156.79 917.06 Q157.262 917.06 157.596 917.393 Z" fill="#000000" fill-rule="evenodd" fill-opacity="1" /><path clip-path="url(#clip540)" d="M162.681 923.034 L162.681 921.283 L180.16 894.579 Q180.605 893.884 181.299 893.912 Q181.938 893.912 182.077 894.162 Q182.216 894.412 182.216 895.385 L182.216 921.283 L187.913 921.283 L187.913 923.034 L182.216 923.034 L182.216 927.98 Q182.216 929.62 182.883 930.148 Q183.578 930.676 186.523 930.676 L187.718 930.676 L187.718 932.426 Q185.384 932.26 179.993 932.26 Q174.63 932.26 172.296 932.426 L172.296 930.676 L173.491 930.676 Q176.436 930.676 177.131 930.176 Q177.826 929.648 177.826 927.98 L177.826 923.034 L162.681 923.034 M164.293 921.283 L178.159 921.283 L178.159 900.053 L164.293 921.283 Z" fill="#000000" fill-rule="evenodd" fill-opacity="1" /><path clip-path="url(#clip540)" d="M195.249 931.509 Q194.388 930.592 194.388 929.398 Q194.388 928.203 195.249 927.341 Q196.11 926.452 197.416 926.452 Q198.667 926.452 199.501 927.286 Q200.362 928.091 200.362 929.425 Q200.362 930.731 199.445 931.593 Q198.556 932.426 197.416 932.426 Q196.11 932.426 195.249 931.509 Z" fill="#000000" fill-rule="evenodd" fill-opacity="1" /><path clip-path="url(#clip540)" d="M207.587 914.225 Q207.587 905.861 209.699 901.304 Q212.644 894.523 219.591 894.523 Q221.064 894.523 222.593 894.94 Q224.149 895.329 226.094 896.858 Q228.067 898.386 229.262 900.887 Q231.54 905.722 231.54 914.225 Q231.54 922.534 229.428 927.063 Q226.344 933.677 219.536 933.677 Q216.979 933.677 214.367 932.371 Q211.783 931.065 210.143 927.925 Q207.587 923.229 207.587 914.225 M212.311 913.53 Q212.311 922.117 212.922 925.535 Q213.617 929.231 215.507 930.843 Q217.424 932.426 219.536 932.426 Q221.815 932.426 223.704 930.731 Q225.621 929.009 226.205 925.313 Q226.844 921.672 226.816 913.53 Q226.816 905.611 226.261 902.443 Q225.51 898.747 223.51 897.274 Q221.537 895.774 219.536 895.774 Q218.786 895.774 217.98 895.996 Q217.202 896.218 216.062 896.858 Q214.923 897.497 214.034 899.081 Q213.172 900.665 212.756 903.054 Q212.311 906.139 212.311 913.53 Z" fill="#000000" fill-rule="evenodd" fill-opacity="1" /><path clip-path="url(#clip540)" d="M158.207 700.956 Q158.541 701.289 158.541 701.761 Q158.541 702.234 158.207 702.567 Q157.874 702.901 157.401 702.901 L121.777 702.901 Q121.304 702.901 120.971 702.567 Q120.638 702.234 120.638 701.761 Q120.638 701.289 120.971 700.956 Q121.304 700.622 121.777 700.622 L157.401 700.622 Q157.874 700.622 158.207 700.956 Z" fill="#000000" fill-rule="evenodd" fill-opacity="1" /><path clip-path="url(#clip540)" d="M164.098 708.319 Q164.098 706.624 165.071 705.819 Q166.044 705.013 167.294 705.013 Q168.6 705.013 169.517 705.874 Q170.462 706.708 170.462 708.181 Q170.462 709.764 169.35 710.654 Q168.267 711.543 166.71 711.321 Q168.072 713.599 170.573 714.627 Q173.102 715.656 175.436 715.656 Q177.881 715.656 179.854 713.544 Q181.855 711.432 181.855 706.263 Q181.855 701.873 180.132 699.344 Q178.437 696.815 175.075 696.815 L172.574 696.815 Q171.712 696.815 171.462 696.732 Q171.212 696.648 171.212 696.176 Q171.212 695.62 172.074 695.509 Q172.935 695.509 174.297 695.342 Q177.603 695.231 179.354 692.369 Q180.938 689.701 180.938 685.894 Q180.938 682.421 179.271 680.976 Q177.631 679.503 175.492 679.503 Q173.491 679.503 171.295 680.337 Q169.1 681.17 167.905 683.032 Q171.434 683.032 171.434 685.894 Q171.434 687.145 170.629 687.979 Q169.851 688.784 168.544 688.784 Q167.294 688.784 166.46 688.006 Q165.627 687.2 165.627 685.839 Q165.627 682.588 168.517 680.337 Q171.434 678.086 175.714 678.086 Q179.938 678.086 183.05 680.309 Q186.19 682.532 186.19 685.95 Q186.19 689.312 183.967 692.063 Q181.744 694.814 178.215 695.954 Q182.55 696.815 185.134 699.761 Q187.718 702.678 187.718 706.263 Q187.718 710.709 184.217 713.988 Q180.716 717.24 175.603 717.24 Q170.879 717.24 167.489 714.683 Q164.098 712.126 164.098 708.319 Z" fill="#000000" fill-rule="evenodd" fill-opacity="1" /><path clip-path="url(#clip540)" d="M195.86 715.072 Q194.999 714.155 194.999 712.96 Q194.999 711.765 195.86 710.904 Q196.722 710.015 198.028 710.015 Q199.278 710.015 200.112 710.848 Q200.973 711.654 200.973 712.988 Q200.973 714.294 200.056 715.155 Q199.167 715.989 198.028 715.989 Q196.722 715.989 195.86 715.072 Z" fill="#000000" fill-rule="evenodd" fill-opacity="1" /><path clip-path="url(#clip540)" d="M208.81 706.819 Q208.81 705.124 209.727 704.485 Q210.644 703.818 211.616 703.818 Q212.922 703.818 213.673 704.651 Q214.451 705.457 214.451 706.597 Q214.451 707.736 213.673 708.57 Q212.922 709.375 211.616 709.375 Q210.977 709.375 210.644 709.264 Q211.394 711.876 213.673 713.766 Q215.979 715.656 219.008 715.656 Q222.815 715.656 225.094 711.96 Q226.455 709.57 226.455 704.151 Q226.455 699.372 225.427 696.982 Q223.843 693.342 220.592 693.342 Q215.979 693.342 213.256 697.315 Q212.922 697.816 212.533 697.843 Q211.977 697.843 211.839 697.538 Q211.727 697.204 211.727 696.343 L211.727 679.503 Q211.727 678.141 212.283 678.141 Q212.505 678.141 212.978 678.308 Q216.563 679.892 220.536 679.92 Q224.621 679.92 228.289 678.253 Q228.567 678.086 228.734 678.086 Q229.29 678.086 229.317 678.725 Q229.317 678.947 228.845 679.614 Q228.4 680.253 227.428 681.115 Q226.455 681.948 225.205 682.754 Q223.954 683.56 222.12 684.116 Q220.314 684.644 218.313 684.644 Q215.923 684.644 213.478 683.894 L213.478 694.981 Q216.424 692.091 220.703 692.091 Q225.26 692.091 228.4 695.759 Q231.54 699.427 231.54 704.54 Q231.54 709.903 227.817 713.571 Q224.121 717.24 219.119 717.24 Q214.562 717.24 211.672 713.988 Q208.81 710.737 208.81 706.819 Z" fill="#000000" fill-rule="evenodd" fill-opacity="1" /><path clip-path="url(#clip540)" d="M157.596 484.518 Q157.929 484.852 157.929 485.324 Q157.929 485.796 157.596 486.13 Q157.262 486.463 156.79 486.463 L121.166 486.463 Q120.693 486.463 120.36 486.13 Q120.026 485.796 120.026 485.324 Q120.026 484.852 120.36 484.518 Q120.693 484.185 121.166 484.185 L156.79 484.185 Q157.262 484.185 157.596 484.518 Z" fill="#000000" fill-rule="evenodd" fill-opacity="1" /><path clip-path="url(#clip540)" d="M163.487 491.882 Q163.487 490.187 164.46 489.381 Q165.432 488.575 166.683 488.575 Q167.989 488.575 168.906 489.437 Q169.851 490.27 169.851 491.743 Q169.851 493.327 168.739 494.216 Q167.655 495.106 166.099 494.883 Q167.461 497.162 169.962 498.19 Q172.49 499.218 174.825 499.218 Q177.27 499.218 179.243 497.106 Q181.244 494.994 181.244 489.826 Q181.244 485.435 179.521 482.906 Q177.826 480.378 174.463 480.378 L171.962 480.378 Q171.101 480.378 170.851 480.294 Q170.601 480.211 170.601 479.739 Q170.601 479.183 171.462 479.072 Q172.324 479.072 173.685 478.905 Q176.992 478.794 178.743 475.932 Q180.327 473.264 180.327 469.457 Q180.327 465.983 178.659 464.538 Q177.02 463.066 174.88 463.066 Q172.879 463.066 170.684 463.899 Q168.489 464.733 167.294 466.595 Q170.823 466.595 170.823 469.457 Q170.823 470.707 170.017 471.541 Q169.239 472.347 167.933 472.347 Q166.683 472.347 165.849 471.569 Q165.015 470.763 165.015 469.401 Q165.015 466.15 167.905 463.899 Q170.823 461.648 175.102 461.648 Q179.326 461.648 182.439 463.872 Q185.579 466.095 185.579 469.513 Q185.579 472.875 183.356 475.626 Q181.133 478.377 177.603 479.516 Q181.938 480.378 184.523 483.323 Q187.107 486.241 187.107 489.826 Q187.107 494.272 183.606 497.551 Q180.104 500.802 174.991 500.802 Q170.267 500.802 166.877 498.246 Q163.487 495.689 163.487 491.882 Z" fill="#000000" fill-rule="evenodd" fill-opacity="1" /><path clip-path="url(#clip540)" d="M195.249 498.635 Q194.388 497.718 194.388 496.523 Q194.388 495.328 195.249 494.466 Q196.11 493.577 197.416 493.577 Q198.667 493.577 199.501 494.411 Q200.362 495.217 200.362 496.55 Q200.362 497.857 199.445 498.718 Q198.556 499.552 197.416 499.552 Q196.11 499.552 195.249 498.635 Z" fill="#000000" fill-rule="evenodd" fill-opacity="1" /><path clip-path="url(#clip540)" d="M207.587 481.35 Q207.587 472.986 209.699 468.429 Q212.644 461.648 219.591 461.648 Q221.064 461.648 222.593 462.065 Q224.149 462.454 226.094 463.983 Q228.067 465.511 229.262 468.012 Q231.54 472.847 231.54 481.35 Q231.54 489.659 229.428 494.188 Q226.344 500.802 219.536 500.802 Q216.979 500.802 214.367 499.496 Q211.783 498.19 210.143 495.05 Q207.587 490.354 207.587 481.35 M212.311 480.656 Q212.311 489.242 212.922 492.66 Q213.617 496.356 215.507 497.968 Q217.424 499.552 219.536 499.552 Q221.815 499.552 223.704 497.857 Q225.621 496.134 226.205 492.438 Q226.844 488.798 226.816 480.656 Q226.816 472.736 226.261 469.568 Q225.51 465.872 223.51 464.4 Q221.537 462.899 219.536 462.899 Q218.786 462.899 217.98 463.121 Q217.202 463.344 216.062 463.983 Q214.923 464.622 214.034 466.206 Q213.172 467.79 212.756 470.179 Q212.311 473.264 212.311 480.656 Z" fill="#000000" fill-rule="evenodd" fill-opacity="1" /><path clip-path="url(#clip540)" d="M158.207 268.081 Q158.541 268.414 158.541 268.887 Q158.541 269.359 158.207 269.692 Q157.874 270.026 157.401 270.026 L121.777 270.026 Q121.304 270.026 120.971 269.692 Q120.638 269.359 120.638 268.887 Q120.638 268.414 120.971 268.081 Q121.304 267.747 121.777 267.747 L157.401 267.747 Q157.874 267.747 158.207 268.081 Z" fill="#000000" fill-rule="evenodd" fill-opacity="1" /><path clip-path="url(#clip540)" d="M164.543 283.114 Q164.543 282.086 164.626 281.78 Q164.737 281.475 165.182 281.002 L176.103 268.831 Q182.077 262.106 182.077 256.243 Q182.077 252.436 180.077 249.713 Q178.104 246.99 174.463 246.99 Q171.962 246.99 169.851 248.518 Q167.739 250.046 166.766 252.769 Q166.933 252.714 167.516 252.714 Q168.933 252.714 169.712 253.603 Q170.517 254.492 170.517 255.687 Q170.517 257.216 169.517 257.966 Q168.544 258.688 167.572 258.688 Q167.183 258.688 166.655 258.605 Q166.155 258.522 165.349 257.744 Q164.543 256.938 164.543 255.52 Q164.543 251.547 167.544 248.379 Q170.573 245.211 175.186 245.211 Q180.41 245.211 183.828 248.323 Q187.274 251.408 187.274 256.243 Q187.274 257.938 186.746 259.494 Q186.246 261.023 185.551 262.217 Q184.884 263.412 183.05 265.33 Q181.216 267.247 179.743 268.609 Q178.27 269.97 174.964 272.86 L168.933 278.724 L179.187 278.724 Q184.189 278.724 184.578 278.279 Q185.134 277.473 185.829 273.222 L187.274 273.222 L185.662 283.114 L164.543 283.114 Z" fill="#000000" fill-rule="evenodd" fill-opacity="1" /><path clip-path="url(#clip540)" d="M195.86 282.197 Q194.999 281.28 194.999 280.085 Q194.999 278.89 195.86 278.029 Q196.722 277.14 198.028 277.14 Q199.278 277.14 200.112 277.973 Q200.973 278.779 200.973 280.113 Q200.973 281.419 200.056 282.281 Q199.167 283.114 198.028 283.114 Q196.722 283.114 195.86 282.197 Z" fill="#000000" fill-rule="evenodd" fill-opacity="1" /><path clip-path="url(#clip540)" d="M208.81 273.944 Q208.81 272.249 209.727 271.61 Q210.644 270.943 211.616 270.943 Q212.922 270.943 213.673 271.777 Q214.451 272.582 214.451 273.722 Q214.451 274.861 213.673 275.695 Q212.922 276.501 211.616 276.501 Q210.977 276.501 210.644 276.389 Q211.394 279.002 213.673 280.891 Q215.979 282.781 219.008 282.781 Q222.815 282.781 225.094 279.085 Q226.455 276.695 226.455 271.276 Q226.455 266.497 225.427 264.107 Q223.843 260.467 220.592 260.467 Q215.979 260.467 213.256 264.441 Q212.922 264.941 212.533 264.968 Q211.977 264.968 211.839 264.663 Q211.727 264.329 211.727 263.468 L211.727 246.628 Q211.727 245.267 212.283 245.267 Q212.505 245.267 212.978 245.433 Q216.563 247.017 220.536 247.045 Q224.621 247.045 228.289 245.378 Q228.567 245.211 228.734 245.211 Q229.29 245.211 229.317 245.85 Q229.317 246.072 228.845 246.739 Q228.4 247.379 227.428 248.24 Q226.455 249.074 225.205 249.879 Q223.954 250.685 222.12 251.241 Q220.314 251.769 218.313 251.769 Q215.923 251.769 213.478 251.019 L213.478 262.106 Q216.424 259.216 220.703 259.216 Q225.26 259.216 228.4 262.884 Q231.54 266.552 231.54 271.665 Q231.54 277.029 227.817 280.697 Q224.121 284.365 219.119 284.365 Q214.562 284.365 211.672 281.113 Q208.81 277.862 208.81 273.944 Z" fill="#000000" fill-rule="evenodd" fill-opacity="1" /><path clip-path="url(#clip540)" d="M157.596 51.6434 Q157.929 51.9768 157.929 52.4492 Q157.929 52.9216 157.596 53.2551 Q157.262 53.5885 156.79 53.5885 L121.166 53.5885 Q120.693 53.5885 120.36 53.2551 Q120.026 52.9216 120.026 52.4492 Q120.026 51.9768 120.36 51.6434 Q120.693 51.3099 121.166 51.3099 L156.79 51.3099 Q157.262 51.3099 157.596 51.6434 Z" fill="#000000" fill-rule="evenodd" fill-opacity="1" /><path clip-path="url(#clip540)" d="M163.932 66.6768 Q163.932 65.6486 164.015 65.343 Q164.126 65.0373 164.571 64.5649 L175.492 52.3936 Q181.466 45.6689 181.466 39.8056 Q181.466 35.9986 179.465 33.2753 Q177.492 30.5521 173.852 30.5521 Q171.351 30.5521 169.239 32.0804 Q167.127 33.6088 166.155 36.332 Q166.321 36.2765 166.905 36.2765 Q168.322 36.2765 169.1 37.1657 Q169.906 38.0549 169.906 39.2498 Q169.906 40.7782 168.906 41.5284 Q167.933 42.2509 166.961 42.2509 Q166.571 42.2509 166.044 42.1676 Q165.543 42.0842 164.737 41.3061 Q163.932 40.5003 163.932 39.0831 Q163.932 35.1094 166.933 31.9415 Q169.962 28.7736 174.575 28.7736 Q179.799 28.7736 183.217 31.8859 Q186.662 34.9704 186.662 39.8056 Q186.662 41.5006 186.134 43.0568 Q185.634 44.5851 184.94 45.78 Q184.273 46.9749 182.439 48.8923 Q180.605 50.8097 179.132 52.1713 Q177.659 53.533 174.352 56.4229 L168.322 62.2862 L178.576 62.2862 Q183.578 62.2862 183.967 61.8416 Q184.523 61.0358 185.217 56.7842 L186.662 56.7842 L185.051 66.6768 L163.932 66.6768 Z" fill="#000000" fill-rule="evenodd" fill-opacity="1" /><path clip-path="url(#clip540)" d="M195.249 65.7598 Q194.388 64.8428 194.388 63.6479 Q194.388 62.453 195.249 61.5915 Q196.11 60.7023 197.416 60.7023 Q198.667 60.7023 199.501 61.536 Q200.362 62.3418 200.362 63.6757 Q200.362 64.9817 199.445 65.8431 Q198.556 66.6768 197.416 66.6768 Q196.11 66.6768 195.249 65.7598 Z" fill="#000000" fill-rule="evenodd" fill-opacity="1" /><path clip-path="url(#clip540)" d="M207.587 48.4755 Q207.587 40.1112 209.699 35.554 Q212.644 28.7736 219.591 28.7736 Q221.064 28.7736 222.593 29.1905 Q224.149 29.5795 226.094 31.1078 Q228.067 32.6362 229.262 35.1371 Q231.54 39.9723 231.54 48.4755 Q231.54 56.7842 229.428 61.3137 Q226.344 67.9273 219.536 67.9273 Q216.979 67.9273 214.367 66.6212 Q211.783 65.3152 210.143 62.1751 Q207.587 57.4789 207.587 48.4755 M212.311 47.7808 Q212.311 56.3674 212.922 59.7853 Q213.617 63.4811 215.507 65.0929 Q217.424 66.6768 219.536 66.6768 Q221.815 66.6768 223.704 64.9817 Q225.621 63.2588 226.205 59.563 Q226.844 55.9227 226.816 47.7808 Q226.816 39.8611 226.261 36.6933 Q225.51 32.9974 223.51 31.5247 Q221.537 30.0241 219.536 30.0241 Q218.786 30.0241 217.98 30.2464 Q217.202 30.4687 216.062 31.1078 Q214.923 31.747 214.034 33.3309 Q213.172 34.9148 212.756 37.3046 Q212.311 40.3891 212.311 47.7808 Z" fill="#000000" fill-rule="evenodd" fill-opacity="1" /><path clip-path="url(#clip540)" d="M65.7354 634.962 Q60.9343 634.962 57.3921 630.366 Q53.8498 625.74 53.3229 619.329 L49.8392 619.329 Q48.0534 619.329 47.585 620.442 Q47.0873 621.554 47.0873 625.857 L47.0873 626.999 L45.2137 626.999 Q45.3894 621.847 45.3894 616.812 Q45.3894 611.776 45.2137 606.624 L47.0873 606.624 L47.0873 607.707 Q47.0873 611.893 47.5557 613.094 Q48.0241 614.294 49.8392 614.294 L53.3229 614.294 Q53.7913 607.766 57.3335 603.052 Q60.8758 598.339 65.7354 598.339 Q70.2437 598.339 73.9031 602.847 Q77.5332 607.326 78.0894 614.294 L81.5438 614.294 Q83.3296 614.294 83.8273 613.181 Q84.3249 612.069 84.3249 607.766 L84.3249 606.624 L86.1692 606.624 Q85.9936 611.776 85.9936 616.812 Q85.9936 621.847 86.1692 626.999 L84.3249 626.999 L84.3249 625.857 Q84.3249 621.613 83.8273 620.471 Q83.3003 619.329 81.5438 619.329 L78.0894 619.329 Q77.5624 625.799 73.9909 630.395 Q70.4194 634.962 65.7354 634.962 M65.6769 628.99 Q75.3376 628.99 76.6256 619.329 L54.7573 619.329 Q55.4307 623.955 58.1532 626.472 Q60.8758 628.99 65.6769 628.99 M76.6842 614.294 Q75.2497 604.399 65.7354 604.399 Q62.6323 604.399 60.4367 605.336 Q58.241 606.243 57.0993 607.971 Q55.9576 609.668 55.4892 611.074 Q54.9915 612.479 54.6988 614.294 L76.6842 614.294 Z" fill="#000000" fill-rule="evenodd" fill-opacity="1" /><path clip-path="url(#clip540)" d="M100.309 592.109 Q100.016 592.109 99.3722 591.875 L42.8132 570.709 Q42.7546 570.709 42.4326 570.563 Q42.1106 570.417 41.9057 570.329 Q41.6715 570.241 41.4958 570.065 Q41.3202 569.86 41.3202 569.626 Q41.3202 569.041 42.0521 569.041 Q42.1106 569.041 42.8132 569.216 L99.4308 590.441 Q100.455 590.792 100.748 591.026 Q101.041 591.231 101.041 591.582 Q101.041 592.109 100.309 592.109 Z" fill="#000000" fill-rule="evenodd" fill-opacity="1" /><path clip-path="url(#clip540)" d="M71.1805 562.42 Q61.0514 562.42 52.8837 558.643 Q49.4586 557.033 46.5897 554.779 Q43.7207 552.525 42.4619 551.032 Q41.2031 549.539 41.2031 549.129 Q41.2031 548.544 41.7886 548.514 Q42.0813 548.514 42.8132 549.305 Q52.6495 558.965 71.1805 558.936 Q89.7701 558.936 99.2258 549.539 Q100.25 548.514 100.572 548.514 Q101.158 548.514 101.158 549.129 Q101.158 549.539 99.9577 550.973 Q98.7574 552.408 96.0056 554.633 Q93.2538 556.858 89.8872 558.468 Q81.7195 562.42 71.1805 562.42 Z" fill="#000000" fill-rule="evenodd" fill-opacity="1" /><path clip-path="url(#clip540)" d="M44.5111 500.433 L59.7926 504.209 Q60.7587 504.473 60.8758 504.648 Q60.9929 504.795 60.9929 505.263 Q60.9929 506.171 60.3781 506.171 Q60.3196 506.171 59.5584 506.083 Q58.768 505.995 57.3335 505.995 Q52.0348 505.995 48.9024 508.571 Q45.77 511.118 45.77 515.656 Q45.77 519.901 47.9948 523.97 Q50.2197 528.039 53.4985 530.644 Q56.1918 532.84 59.4706 534.362 Q62.7494 535.855 65.6183 536.47 Q68.458 537.085 70.1852 537.319 Q71.9124 537.524 73.0248 537.524 Q76.3036 537.524 78.8505 536.47 Q81.3682 535.416 82.8026 533.66 Q84.2371 531.874 84.9397 529.825 Q85.6423 527.746 85.6423 525.492 Q85.6423 524.643 85.5252 523.618 Q85.4081 522.594 84.969 521.013 Q84.5299 519.403 83.798 518.086 Q83.0661 516.739 81.6609 515.568 Q80.2557 514.368 78.3821 513.899 Q73.6103 512.64 72.9077 512.64 Q72.3222 512.64 72.1173 512.992 Q71.9124 513.343 71.766 514.514 L71.6489 517.676 Q71.6489 517.734 71.6489 517.822 Q71.6489 518.378 71.6489 518.612 Q71.6196 518.847 71.5611 519.11 Q71.5025 519.344 71.3855 519.432 Q71.2391 519.491 71.0049 519.491 Q70.4487 519.491 70.1852 519.257 Q69.8924 519.022 69.8632 518.817 Q69.8046 518.612 69.8046 518.232 L69.9803 509.83 Q69.9803 509.157 69.8924 506.698 Q69.8046 504.239 69.8046 503.536 Q69.8046 502.745 70.4487 502.745 Q71.6489 502.745 71.6489 503.712 Q71.6782 504.678 71.7075 505.175 Q71.7075 505.673 71.8538 506.171 Q72.0002 506.639 72.1173 506.815 Q72.2051 506.99 72.6443 507.225 Q73.0541 507.459 73.4054 507.547 Q73.7274 507.634 74.5471 507.839 Q75.0741 507.956 76.0694 508.249 Q77.0648 508.513 77.5917 508.63 L82.2171 509.771 Q85.6423 510.562 85.8765 510.796 Q86.1107 510.913 86.1107 511.206 Q86.1107 511.645 84.8226 512.582 Q83.5345 513.489 82.3928 513.899 Q83.1832 514.631 83.6516 515.099 Q84.0907 515.568 84.7933 516.651 Q85.4959 517.705 86.0521 519.11 Q87.4866 522.535 87.4866 526.604 Q87.4866 533.865 82.8905 538.432 Q78.265 542.998 71.0634 542.998 Q65.9696 542.998 60.9636 540.656 Q55.9576 538.314 52.2397 534.597 Q48.5218 530.879 46.2091 525.96 Q43.8964 521.042 43.8964 516.124 Q43.8964 514.251 44.394 512.582 Q44.8917 510.913 45.5065 509.918 Q46.1213 508.893 47.0288 507.986 Q47.907 507.078 48.3169 506.785 Q48.7267 506.463 49.2244 506.171 L44.6282 501.984 Q43.8964 501.252 43.8964 501.077 Q43.8964 500.726 44.1013 500.579 Q44.3062 500.433 44.5111 500.433 Z" fill="#000000" fill-rule="evenodd" fill-opacity="1" /><path clip-path="url(#clip540)" d="M45.8871 436.276 Q46.736 436.276 46.9117 436.656 Q47.0873 437.007 47.0873 438.178 Q47.0873 439.554 47.2044 440.403 Q47.2923 441.252 47.4386 441.779 Q47.5557 442.306 47.9656 442.628 Q48.3754 442.921 48.7267 443.038 Q49.0487 443.155 49.8392 443.36 L81.778 451.323 Q82.8612 451.616 83.2418 451.616 Q83.6223 451.616 83.8565 451.381 Q84.0907 451.118 84.2078 450.474 Q84.2957 449.83 84.3249 449.332 Q84.3249 448.805 84.3249 447.722 Q84.3249 446.375 84.5591 446.171 Q84.7055 446.053 84.969 446.053 Q85.5252 446.053 85.818 446.288 Q86.0814 446.522 86.14 446.727 Q86.1692 446.902 86.1692 447.195 Q86.1692 448.425 86.0814 450.942 Q85.9936 453.46 85.9936 454.689 L86.1692 462.125 Q86.1692 463.004 85.4374 463.004 Q84.8812 463.004 84.647 462.769 Q84.3835 462.535 84.3542 462.272 Q84.3249 462.008 84.3249 461.335 Q84.3249 458.934 84.0615 457.91 Q83.798 456.856 83.3296 456.563 Q82.8319 456.241 81.4853 455.89 L47.1459 447.312 L47.1459 447.371 L85.0861 471.581 L85.3496 471.757 Q85.5838 471.932 85.6716 471.991 Q85.7301 472.049 85.9058 472.225 Q86.0521 472.372 86.1107 472.547 Q86.1692 472.694 86.1692 472.898 Q86.1692 473.25 85.935 473.455 Q85.7009 473.63 85.5252 473.689 Q85.3203 473.718 84.7933 473.806 L47.6143 478.958 L47.6143 479.017 L80.285 487.185 Q81.1925 487.419 81.6609 487.419 Q82.8612 487.419 83.5931 486.57 Q84.2957 485.692 84.3249 483.35 Q84.3249 482.266 84.969 482.266 Q86.1692 482.266 86.1692 483.35 Q86.1692 484.345 86.0814 486.423 Q85.9936 488.502 85.9936 489.527 Q85.9936 490.522 86.0814 492.542 Q86.1692 494.533 86.1692 495.499 Q86.1692 496.348 85.4374 496.348 Q84.3249 496.348 84.3249 495.264 Q84.2664 493.508 83.9151 492.308 Q83.5638 491.107 82.8905 490.434 Q82.2171 489.731 81.5438 489.409 Q80.8412 489.058 79.8166 488.795 L49.2829 481.183 Q48.3169 480.949 48.1705 480.949 Q47.6728 480.949 47.4972 481.242 Q47.2923 481.505 47.2044 482.266 Q47.0873 483.73 47.0873 484.843 Q47.0873 485.574 47.0581 485.867 Q47.0288 486.131 46.8824 486.365 Q46.7068 486.57 46.3555 486.57 Q45.7992 486.57 45.565 486.336 Q45.3016 486.072 45.2723 485.779 Q45.2137 485.487 45.2137 484.784 L45.2137 476.558 Q45.2137 475.358 45.4187 475.094 Q45.5943 474.831 46.5897 474.713 L80.5192 470.03 L46.3555 448.132 Q45.5065 447.576 45.3601 447.283 Q45.2137 446.99 45.2137 445.819 L45.2137 437.886 Q45.2137 437.242 45.243 436.978 Q45.2723 436.715 45.4187 436.51 Q45.565 436.276 45.8871 436.276 Z" fill="#000000" fill-rule="evenodd" fill-opacity="1" /><path clip-path="url(#clip540)" d="M78.8251 430.455 L77.5136 430.455 Q77.5136 425.414 74.8291 422.812 Q74.8291 422.094 74.9931 421.971 Q75.157 421.848 75.9152 421.848 L99.461 421.848 Q100.711 421.848 101.1 421.234 Q101.49 420.619 101.49 417.934 L101.49 416.602 L102.781 416.602 Q102.658 418.078 102.658 423.406 Q102.658 428.734 102.781 430.189 L101.49 430.189 L101.49 428.857 Q101.49 426.213 101.121 425.578 Q100.732 424.943 99.461 424.943 L77.7185 424.943 Q78.8251 427.135 78.8251 430.455 Z" fill="#000000" fill-rule="evenodd" fill-opacity="1" /><path clip-path="url(#clip540)" d="M100.309 410.336 Q100.016 410.336 99.3722 410.102 L42.8132 388.936 Q42.7546 388.936 42.4326 388.79 Q42.1106 388.643 41.9057 388.556 Q41.6715 388.468 41.4958 388.292 Q41.3202 388.087 41.3202 387.853 Q41.3202 387.268 42.0521 387.268 Q42.1106 387.268 42.8132 387.443 L99.4308 408.667 Q100.455 409.019 100.748 409.253 Q101.041 409.458 101.041 409.809 Q101.041 410.336 100.309 410.336 Z" fill="#000000" fill-rule="evenodd" fill-opacity="1" /><path clip-path="url(#clip540)" d="M77.5917 353.187 Q81.3682 353.977 83.5345 355.002 Q86.8426 356.641 86.8426 359.422 Q86.8426 361.53 85.5545 363.023 Q84.2664 364.516 82.3342 364.867 Q86.8426 368.702 86.8426 372.684 Q86.8426 376.197 84.1786 378.422 Q81.4853 380.647 77.2404 380.647 Q72.9663 380.647 68.8678 378.539 Q64.7693 376.402 62.2224 373.035 Q59.6755 369.669 59.6755 366.214 Q59.6755 362.555 63.5105 360.681 Q62.4566 360.535 61.6662 359.861 Q60.8758 359.188 60.8758 358.163 Q60.8758 357.373 61.3149 356.905 Q61.7248 356.436 62.4859 356.436 Q62.8665 356.436 64.5351 356.846 L72.9077 359.012 L78.3236 360.33 Q80.3143 360.827 81.0462 360.974 Q81.778 361.091 82.7441 361.091 Q85.4959 361.091 85.4959 359.305 Q85.4959 358.427 84.9397 357.724 Q84.3835 357.022 83.2125 356.466 Q82.0415 355.909 80.9583 355.558 Q79.8459 355.207 78.0894 354.738 Q77.3868 354.592 77.2111 354.475 Q77.0062 354.328 77.0062 353.919 Q77.0062 353.187 77.5917 353.187 M66.2624 361.413 Q65.9989 361.413 65.267 361.618 Q64.5351 361.823 63.5105 362.291 Q62.4859 362.76 61.754 363.784 Q60.9929 364.78 60.9929 366.126 Q60.9929 367.941 62.5444 369.844 Q64.096 371.718 66.7307 373.094 Q68.8385 374.148 73.259 375.289 Q77.6795 376.402 79.8752 376.402 Q81.2218 376.402 82.4221 376.109 Q83.5931 375.787 84.5591 374.879 Q85.4959 373.972 85.4959 372.567 Q85.4959 369.142 81.2511 365.775 Q80.5192 365.131 80.2265 364.985 Q79.9044 364.809 79.0262 364.575 L67.287 361.589 Q66.4087 361.413 66.2624 361.413 Z" fill="#000000" fill-rule="evenodd" fill-opacity="1" /><path clip-path="url(#clip540)" d="M100.572 348.287 Q100.28 348.287 99.5479 347.525 Q89.7115 337.865 71.1805 337.865 Q52.591 337.865 43.1938 347.145 Q42.1106 348.287 41.7886 348.287 Q41.2031 348.287 41.2031 347.701 Q41.2031 347.291 42.4034 345.857 Q43.6036 344.393 46.3555 342.197 Q49.1073 339.972 52.4739 338.333 Q60.6416 334.381 71.1805 334.381 Q81.3096 334.381 89.4773 338.157 Q92.9025 339.768 95.7714 342.022 Q98.6403 344.276 99.8992 345.769 Q101.158 347.262 101.158 347.701 Q101.158 348.287 100.572 348.287 Z" fill="#000000" fill-rule="evenodd" fill-opacity="1" /><polyline clip-path="url(#clip542)" style="stroke:#009af9; stroke-linecap:butt; stroke-linejoin:round; stroke-width:11.9987; stroke-opacity:1; fill:none" points="
  286.251,611.78 297.299,578.308 308.346,546.029 319.394,514.97 330.441,485.161 341.489,456.637 352.536,429.436 363.584,403.598 374.631,379.17 385.679,356.203 
  396.726,334.757 407.773,314.896 418.821,296.693 429.868,280.232 440.916,265.609 451.963,252.932 463.011,242.325 474.058,233.933 485.106,227.924 496.153,224.492 
  507.201,223.868 518.248,226.324 529.296,232.186 540.343,241.844 551.39,255.775 562.438,274.562 573.485,298.93 584.533,329.79 595.58,368.303 606.628,415.978 
  617.675,474.801 628.723,547.457 639.77,637.651 650.818,750.661 661.865,894.258 672.913,1080.4 683.96,1328.45 695.007,1672.08 706.055,2175.29 717.102,2976.75 
  728.15,4443.51 739.197,7970.2 750.245,27967.8 761.292,20825.5 772.34,7191.38 783.387,4164.2 794.435,2835.42 805.482,2091.56 816.53,1618.65 827.577,1293.91 
  838.624,1059.52 849.672,884.742 860.719,751.801 871.767,649.781 882.814,571.697 893.862,512.98 904.909,470.647 915.957,442.837 927.004,428.564 938.052,427.609 
  949.099,440.54 960.147,468.853 971.194,515.311 982.241,584.606 993.289,684.659 1004.34,829.337 1015.38,1044.65 1026.43,1385.03 1037.48,1985.49 1048.53,3296.69 
  1059.57,8293.99 1070.62,21150 1081.67,4485.73 1092.72,2405.73 1103.76,1595.44 1114.81,1167.15 1125.86,904.888 1136.91,730.073 1147.95,607.246 1159,518.042 
  1170.05,451.994 1181.1,402.691 1192.14,365.987 1203.19,339.074 1214.24,319.988 1225.29,307.305 1236.33,299.971 1247.38,297.188 1258.43,298.339 1269.48,302.939 
  1280.52,310.601 1291.57,321.015 1302.62,333.924 1313.67,349.118 1324.71,366.421 1335.76,385.686 1346.81,406.788 1357.86,429.619 1368.9,454.087 1379.95,480.114 
  
  "/>
</svg>
