<?xml version="1.0" encoding="utf-8"?>
<svg xmlns="http://www.w3.org/2000/svg" xmlns:xlink="http://www.w3.org/1999/xlink" width="600" height="400" viewBox="0 0 2400 1600">
<defs>
  <clipPath id="clip370">
    <rect x="0" y="0" width="2400" height="1600"/>
  </clipPath>
</defs>
<path clip-path="url(#clip370)" d="
M0 1600 L2400 1600 L2400 0 L0 0  Z
  " fill="#ffffff" fill-rule="evenodd" fill-opacity="1"/>
<defs>
  <clipPath id="clip371">
    <rect x="480" y="0" width="1681" height="1600"/>
  </clipPath>
</defs>
<defs>
  <clipPath id="clip372">
    <rect x="257" y="47" width="2097" height="1377"/>
  </clipPath>
</defs>
<path clip-path="url(#clip370)" d="
M257.204 1423.18 L2352.76 1423.18 L2352.76 47.2441 L257.204 47.2441  Z
  " fill="#ffffff" fill-rule="evenodd" fill-opacity="1"/>
<polyline clip-path="url(#clip372)" style="stroke:#000000; stroke-linecap:butt; stroke-linejoin:round; stroke-width:2; stroke-opacity:0.1; fill:none" points="
  598.931,1423.18 598.931,47.2441 
  "/>
<polyline clip-path="url(#clip372)" style="stroke:#000000; stroke-linecap:butt; stroke-linejoin:round; stroke-width:2; stroke-opacity:0.1; fill:none" points="
  1163.77,1423.18 1163.77,47.2441 
  "/>
<polyline clip-path="url(#clip372)" style="stroke:#000000; stroke-linecap:butt; stroke-linejoin:round; stroke-width:2; stroke-opacity:0.1; fill:none" points="
  1728.61,1423.18 1728.61,47.2441 
  "/>
<polyline clip-path="url(#clip372)" style="stroke:#000000; stroke-linecap:butt; stroke-linejoin:round; stroke-width:2; stroke-opacity:0.1; fill:none" points="
  2293.45,1423.18 2293.45,47.2441 
  "/>
<polyline clip-path="url(#clip370)" style="stroke:#000000; stroke-linecap:butt; stroke-linejoin:round; stroke-width:4; stroke-opacity:1; fill:none" points="
  257.204,1423.18 2352.76,1423.18 
  "/>
<polyline clip-path="url(#clip370)" style="stroke:#000000; stroke-linecap:butt; stroke-linejoin:round; stroke-width:4; stroke-opacity:1; fill:none" points="
  598.931,1423.18 598.931,1404.28 
  "/>
<polyline clip-path="url(#clip370)" style="stroke:#000000; stroke-linecap:butt; stroke-linejoin:round; stroke-width:4; stroke-opacity:1; fill:none" points="
  1163.77,1423.18 1163.77,1404.28 
  "/>
<polyline clip-path="url(#clip370)" style="stroke:#000000; stroke-linecap:butt; stroke-linejoin:round; stroke-width:4; stroke-opacity:1; fill:none" points="
  1728.61,1423.18 1728.61,1404.28 
  "/>
<polyline clip-path="url(#clip370)" style="stroke:#000000; stroke-linecap:butt; stroke-linejoin:round; stroke-width:4; stroke-opacity:1; fill:none" points="
  2293.45,1423.18 2293.45,1404.28 
  "/>
<path clip-path="url(#clip370)" d="M568.689 1468.75 L598.364 1468.75 L598.364 1472.69 L568.689 1472.69 L568.689 1468.75 Z" fill="#000000" fill-rule="evenodd" fill-opacity="1" /><path clip-path="url(#clip370)" d="M609.267 1481.64 L616.906 1481.64 L616.906 1455.28 L608.596 1456.95 L608.596 1452.69 L616.86 1451.02 L621.536 1451.02 L621.536 1481.64 L629.174 1481.64 L629.174 1485.58 L609.267 1485.58 L609.267 1481.64 Z" fill="#000000" fill-rule="evenodd" fill-opacity="1" /><path clip-path="url(#clip370)" d="M1163.77 1454.1 Q1160.16 1454.1 1158.33 1457.66 Q1156.52 1461.2 1156.52 1468.33 Q1156.52 1475.44 1158.33 1479.01 Q1160.16 1482.55 1163.77 1482.55 Q1167.4 1482.55 1169.21 1479.01 Q1171.04 1475.44 1171.04 1468.33 Q1171.04 1461.2 1169.21 1457.66 Q1167.4 1454.1 1163.77 1454.1 M1163.77 1450.39 Q1169.58 1450.39 1172.64 1455 Q1175.71 1459.58 1175.71 1468.33 Q1175.71 1477.06 1172.64 1481.67 Q1169.58 1486.25 1163.77 1486.25 Q1157.96 1486.25 1154.88 1481.67 Q1151.83 1477.06 1151.83 1468.33 Q1151.83 1459.58 1154.88 1455 Q1157.96 1450.39 1163.77 1450.39 Z" fill="#000000" fill-rule="evenodd" fill-opacity="1" /><path clip-path="url(#clip370)" d="M1718.99 1481.64 L1726.63 1481.64 L1726.63 1455.28 L1718.32 1456.95 L1718.32 1452.69 L1726.58 1451.02 L1731.26 1451.02 L1731.26 1481.64 L1738.9 1481.64 L1738.9 1485.58 L1718.99 1485.58 L1718.99 1481.64 Z" fill="#000000" fill-rule="evenodd" fill-opacity="1" /><path clip-path="url(#clip370)" d="M2288.1 1481.64 L2304.42 1481.64 L2304.42 1485.58 L2282.48 1485.58 L2282.48 1481.64 Q2285.14 1478.89 2289.72 1474.26 Q2294.33 1469.61 2295.51 1468.27 Q2297.75 1465.74 2298.63 1464.01 Q2299.54 1462.25 2299.54 1460.56 Q2299.54 1457.8 2297.59 1456.07 Q2295.67 1454.33 2292.57 1454.33 Q2290.37 1454.33 2287.92 1455.09 Q2285.48 1455.86 2282.71 1457.41 L2282.71 1452.69 Q2285.53 1451.55 2287.98 1450.97 Q2290.44 1450.39 2292.48 1450.39 Q2297.85 1450.39 2301.04 1453.08 Q2304.23 1455.77 2304.23 1460.26 Q2304.23 1462.39 2303.42 1464.31 Q2302.64 1466.2 2300.53 1468.8 Q2299.95 1469.47 2296.85 1472.69 Q2293.75 1475.88 2288.1 1481.64 Z" fill="#000000" fill-rule="evenodd" fill-opacity="1" /><path clip-path="url(#clip370)" d="M1285.55 1531.07 Q1285.55 1532.87 1284.42 1533.9 Q1283.29 1534.9 1282.01 1534.9 Q1280.78 1534.9 1280.14 1534.19 Q1279.49 1533.48 1279.49 1532.58 Q1279.49 1531.36 1280.4 1530.3 Q1281.3 1529.23 1282.65 1529.01 Q1281.33 1528.17 1279.36 1528.17 Q1278.08 1528.17 1276.95 1528.85 Q1275.85 1529.52 1275.18 1530.39 Q1274.53 1531.26 1273.95 1532.52 Q1273.41 1533.74 1273.18 1534.48 Q1272.99 1535.19 1272.83 1535.96 L1270.57 1544.98 Q1269.48 1549.27 1269.48 1550.78 Q1269.48 1552.65 1270.38 1553.9 Q1271.28 1555.13 1273.08 1555.13 Q1273.79 1555.13 1274.6 1554.93 Q1275.4 1554.71 1276.43 1554.13 Q1277.5 1553.52 1278.43 1552.61 Q1279.4 1551.68 1280.33 1550.1 Q1281.26 1548.52 1281.88 1546.5 Q1282.07 1545.79 1282.71 1545.79 Q1283.52 1545.79 1283.52 1546.43 Q1283.52 1546.98 1283.07 1548.14 Q1282.65 1549.27 1281.72 1550.75 Q1280.81 1552.2 1279.62 1553.52 Q1278.43 1554.8 1276.66 1555.71 Q1274.89 1556.61 1272.96 1556.61 Q1270.19 1556.61 1268.35 1555.13 Q1266.51 1553.65 1265.84 1551.58 Q1265.68 1551.87 1265.45 1552.26 Q1265.23 1552.65 1264.55 1553.52 Q1263.91 1554.35 1263.17 1555 Q1262.42 1555.61 1261.27 1556.09 Q1260.14 1556.61 1258.91 1556.61 Q1257.37 1556.61 1255.98 1556.16 Q1254.63 1555.71 1253.66 1554.68 Q1252.7 1553.65 1252.7 1552.23 Q1252.7 1550.65 1253.76 1549.56 Q1254.86 1548.43 1256.34 1548.43 Q1257.27 1548.43 1258.01 1548.98 Q1258.79 1549.52 1258.79 1550.71 Q1258.79 1552.04 1257.88 1553.03 Q1256.98 1554.03 1255.69 1554.29 Q1257.01 1555.13 1258.98 1555.13 Q1261.1 1555.13 1262.78 1553.26 Q1264.45 1551.39 1265.26 1548.27 Q1267.26 1540.76 1268.03 1537.41 Q1268.8 1534.03 1268.8 1532.58 Q1268.8 1531.23 1268.45 1530.3 Q1268.09 1529.36 1267.48 1528.94 Q1266.9 1528.49 1266.35 1528.33 Q1265.84 1528.17 1265.26 1528.17 Q1264.29 1528.17 1263.2 1528.56 Q1262.13 1528.94 1260.85 1529.85 Q1259.59 1530.72 1258.4 1532.52 Q1257.21 1534.32 1256.4 1536.8 Q1256.24 1537.54 1255.53 1537.54 Q1254.76 1537.51 1254.76 1536.87 Q1254.76 1536.32 1255.18 1535.19 Q1255.63 1534.03 1256.53 1532.58 Q1257.46 1531.13 1258.66 1529.85 Q1259.88 1528.53 1261.65 1527.62 Q1263.46 1526.72 1265.39 1526.72 Q1266.26 1526.72 1267.09 1526.91 Q1267.96 1527.08 1268.99 1527.56 Q1270.06 1528.04 1270.99 1529.1 Q1271.93 1530.17 1272.5 1531.71 Q1272.89 1530.97 1273.41 1530.26 Q1273.95 1529.56 1274.79 1528.69 Q1275.66 1527.78 1276.85 1527.27 Q1278.08 1526.72 1279.43 1526.72 Q1280.75 1526.72 1282.04 1527.08 Q1283.33 1527.4 1284.42 1528.46 Q1285.55 1529.49 1285.55 1531.07 Z" fill="#000000" fill-rule="evenodd" fill-opacity="1" /><path clip-path="url(#clip370)" d="M1290.05 1571.42 Q1290.05 1571.1 1290.31 1570.39 L1313.59 1508.17 Q1313.59 1508.11 1313.75 1507.75 Q1313.92 1507.4 1314.01 1507.17 Q1314.11 1506.91 1314.3 1506.72 Q1314.53 1506.53 1314.79 1506.53 Q1315.43 1506.53 1315.43 1507.33 Q1315.43 1507.4 1315.24 1508.17 L1291.89 1570.46 Q1291.5 1571.58 1291.24 1571.91 Q1291.02 1572.23 1290.63 1572.23 Q1290.05 1572.23 1290.05 1571.42 Z" fill="#000000" fill-rule="evenodd" fill-opacity="1" /><path clip-path="url(#clip370)" d="M1352.92 1546.43 Q1352.06 1550.59 1350.93 1552.97 Q1349.12 1556.61 1346.06 1556.61 Q1343.75 1556.61 1342.1 1555.19 Q1340.46 1553.77 1340.07 1551.65 Q1335.86 1556.61 1331.48 1556.61 Q1327.61 1556.61 1325.16 1553.68 Q1322.72 1550.71 1322.72 1546.04 Q1322.72 1541.34 1325.03 1536.83 Q1327.39 1532.33 1331.09 1529.52 Q1334.79 1526.72 1338.59 1526.72 Q1342.62 1526.72 1344.68 1530.94 Q1344.84 1529.78 1345.58 1528.91 Q1346.32 1528.04 1347.45 1528.04 Q1348.32 1528.04 1348.83 1528.53 Q1349.35 1528.98 1349.35 1529.81 Q1349.35 1530.23 1348.9 1532.07 L1346.52 1541.28 L1345.07 1547.24 Q1344.52 1549.43 1344.36 1550.23 Q1344.23 1551.04 1344.23 1552.1 Q1344.23 1555.13 1346.19 1555.13 Q1347.16 1555.13 1347.93 1554.52 Q1348.71 1553.9 1349.32 1552.61 Q1349.93 1551.33 1350.32 1550.14 Q1350.7 1548.91 1351.22 1546.98 Q1351.38 1546.21 1351.51 1546.01 Q1351.67 1545.79 1352.12 1545.79 Q1352.92 1545.79 1352.92 1546.43 M1343.87 1533.97 Q1343.87 1533.68 1343.65 1532.87 Q1343.42 1532.07 1342.91 1530.94 Q1342.39 1529.81 1341.27 1529.01 Q1340.17 1528.17 1338.69 1528.17 Q1336.69 1528.17 1334.6 1529.88 Q1332.54 1531.58 1331.02 1534.48 Q1329.87 1536.8 1328.61 1541.66 Q1327.39 1546.53 1327.39 1548.94 Q1327.39 1550.42 1327.71 1551.75 Q1328.06 1553.03 1329.06 1554.1 Q1330.06 1555.13 1331.6 1555.13 Q1335.37 1555.13 1339.08 1550.46 Q1339.78 1549.65 1339.95 1549.33 Q1340.14 1548.98 1340.4 1548.01 L1343.68 1535.09 Q1343.87 1534.13 1343.87 1533.97 Z" fill="#000000" fill-rule="evenodd" fill-opacity="1" /><polyline clip-path="url(#clip372)" style="stroke:#000000; stroke-linecap:butt; stroke-linejoin:round; stroke-width:2; stroke-opacity:0.1; fill:none" points="
  257.204,1423.18 2352.76,1423.18 
  "/>
<polyline clip-path="url(#clip372)" style="stroke:#000000; stroke-linecap:butt; stroke-linejoin:round; stroke-width:2; stroke-opacity:0.1; fill:none" points="
  257.204,1079.2 2352.76,1079.2 
  "/>
<polyline clip-path="url(#clip372)" style="stroke:#000000; stroke-linecap:butt; stroke-linejoin:round; stroke-width:2; stroke-opacity:0.1; fill:none" points="
  257.204,735.212 2352.76,735.212 
  "/>
<polyline clip-path="url(#clip372)" style="stroke:#000000; stroke-linecap:butt; stroke-linejoin:round; stroke-width:2; stroke-opacity:0.1; fill:none" points="
  257.204,391.228 2352.76,391.228 
  "/>
<polyline clip-path="url(#clip372)" style="stroke:#000000; stroke-linecap:butt; stroke-linejoin:round; stroke-width:2; stroke-opacity:0.1; fill:none" points="
  257.204,47.2441 2352.76,47.2441 
  "/>
<polyline clip-path="url(#clip370)" style="stroke:#000000; stroke-linecap:butt; stroke-linejoin:round; stroke-width:4; stroke-opacity:1; fill:none" points="
  257.204,1423.18 257.204,47.2441 
  "/>
<polyline clip-path="url(#clip370)" style="stroke:#000000; stroke-linecap:butt; stroke-linejoin:round; stroke-width:4; stroke-opacity:1; fill:none" points="
  257.204,1423.18 276.102,1423.18 
  "/>
<polyline clip-path="url(#clip370)" style="stroke:#000000; stroke-linecap:butt; stroke-linejoin:round; stroke-width:4; stroke-opacity:1; fill:none" points="
  257.204,1079.2 276.102,1079.2 
  "/>
<polyline clip-path="url(#clip370)" style="stroke:#000000; stroke-linecap:butt; stroke-linejoin:round; stroke-width:4; stroke-opacity:1; fill:none" points="
  257.204,735.212 276.102,735.212 
  "/>
<polyline clip-path="url(#clip370)" style="stroke:#000000; stroke-linecap:butt; stroke-linejoin:round; stroke-width:4; stroke-opacity:1; fill:none" points="
  257.204,391.228 276.102,391.228 
  "/>
<polyline clip-path="url(#clip370)" style="stroke:#000000; stroke-linecap:butt; stroke-linejoin:round; stroke-width:4; stroke-opacity:1; fill:none" points="
  257.204,47.2441 276.102,47.2441 
  "/>
<path clip-path="url(#clip370)" d="M114.26 1423.63 L143.936 1423.63 L143.936 1427.57 L114.26 1427.57 L114.26 1423.63 Z" fill="#000000" fill-rule="evenodd" fill-opacity="1" /><path clip-path="url(#clip370)" d="M166.876 1409.97 L155.07 1428.42 L166.876 1428.42 L166.876 1409.97 M165.649 1405.9 L171.528 1405.9 L171.528 1428.42 L176.459 1428.42 L176.459 1432.31 L171.528 1432.31 L171.528 1440.46 L166.876 1440.46 L166.876 1432.31 L151.274 1432.31 L151.274 1427.8 L165.649 1405.9 Z" fill="#000000" fill-rule="evenodd" fill-opacity="1" /><path clip-path="url(#clip370)" d="M184.19 1434.58 L189.075 1434.58 L189.075 1440.46 L184.19 1440.46 L184.19 1434.58 Z" fill="#000000" fill-rule="evenodd" fill-opacity="1" /><path clip-path="url(#clip370)" d="M209.26 1408.98 Q205.649 1408.98 203.82 1412.54 Q202.014 1416.08 202.014 1423.21 Q202.014 1430.32 203.82 1433.89 Q205.649 1437.43 209.26 1437.43 Q212.894 1437.43 214.699 1433.89 Q216.528 1430.32 216.528 1423.21 Q216.528 1416.08 214.699 1412.54 Q212.894 1408.98 209.26 1408.98 M209.26 1405.27 Q215.07 1405.27 218.125 1409.88 Q221.204 1414.46 221.204 1423.21 Q221.204 1431.94 218.125 1436.55 Q215.07 1441.13 209.26 1441.13 Q203.449 1441.13 200.371 1436.55 Q197.315 1431.94 197.315 1423.21 Q197.315 1414.46 200.371 1409.88 Q203.449 1405.27 209.26 1405.27 Z" fill="#000000" fill-rule="evenodd" fill-opacity="1" /><path clip-path="url(#clip370)" d="M115.256 1079.65 L144.931 1079.65 L144.931 1083.58 L115.256 1083.58 L115.256 1079.65 Z" fill="#000000" fill-rule="evenodd" fill-opacity="1" /><path clip-path="url(#clip370)" d="M169.19 1077.84 Q172.547 1078.56 174.422 1080.83 Q176.32 1083.1 176.32 1086.43 Q176.32 1091.55 172.802 1094.35 Q169.283 1097.15 162.802 1097.15 Q160.626 1097.15 158.311 1096.71 Q156.019 1096.29 153.566 1095.43 L153.566 1090.92 Q155.51 1092.05 157.825 1092.63 Q160.14 1093.21 162.663 1093.21 Q167.061 1093.21 169.352 1091.48 Q171.667 1089.74 171.667 1086.43 Q171.667 1083.37 169.514 1081.66 Q167.385 1079.93 163.565 1079.93 L159.538 1079.93 L159.538 1076.08 L163.751 1076.08 Q167.2 1076.08 169.028 1074.72 Q170.857 1073.33 170.857 1070.74 Q170.857 1068.07 168.959 1066.66 Q167.084 1065.23 163.565 1065.23 Q161.644 1065.23 159.445 1065.64 Q157.246 1066.06 154.607 1066.94 L154.607 1062.77 Q157.269 1062.03 159.584 1061.66 Q161.922 1061.29 163.982 1061.29 Q169.306 1061.29 172.408 1063.72 Q175.51 1066.13 175.51 1070.25 Q175.51 1073.12 173.866 1075.11 Q172.223 1077.08 169.19 1077.84 Z" fill="#000000" fill-rule="evenodd" fill-opacity="1" /><path clip-path="url(#clip370)" d="M185.186 1090.6 L190.07 1090.6 L190.07 1096.48 L185.186 1096.48 L185.186 1090.6 Z" fill="#000000" fill-rule="evenodd" fill-opacity="1" /><path clip-path="url(#clip370)" d="M200.301 1061.92 L218.658 1061.92 L218.658 1065.85 L204.584 1065.85 L204.584 1074.32 Q205.602 1073.98 206.621 1073.81 Q207.639 1073.63 208.658 1073.63 Q214.445 1073.63 217.824 1076.8 Q221.204 1079.97 221.204 1085.39 Q221.204 1090.97 217.732 1094.07 Q214.26 1097.15 207.94 1097.15 Q205.764 1097.15 203.496 1096.78 Q201.25 1096.41 198.843 1095.67 L198.843 1090.97 Q200.926 1092.1 203.149 1092.66 Q205.371 1093.21 207.848 1093.21 Q211.852 1093.21 214.19 1091.11 Q216.528 1089 216.528 1085.39 Q216.528 1081.78 214.19 1079.67 Q211.852 1077.56 207.848 1077.56 Q205.973 1077.56 204.098 1077.98 Q202.246 1078.4 200.301 1079.28 L200.301 1061.92 Z" fill="#000000" fill-rule="evenodd" fill-opacity="1" /><path clip-path="url(#clip370)" d="M114.26 735.663 L143.936 735.663 L143.936 739.599 L114.26 739.599 L114.26 735.663 Z" fill="#000000" fill-rule="evenodd" fill-opacity="1" /><path clip-path="url(#clip370)" d="M168.195 733.858 Q171.552 734.575 173.427 736.844 Q175.325 739.112 175.325 742.446 Q175.325 747.561 171.806 750.362 Q168.288 753.163 161.806 753.163 Q159.63 753.163 157.315 752.723 Q155.024 752.307 152.57 751.45 L152.57 746.936 Q154.515 748.071 156.829 748.649 Q159.144 749.228 161.667 749.228 Q166.065 749.228 168.357 747.492 Q170.672 745.756 170.672 742.446 Q170.672 739.39 168.519 737.677 Q166.39 735.941 162.57 735.941 L158.542 735.941 L158.542 732.099 L162.755 732.099 Q166.204 732.099 168.033 730.733 Q169.862 729.344 169.862 726.751 Q169.862 724.089 167.964 722.677 Q166.089 721.242 162.57 721.242 Q160.649 721.242 158.45 721.659 Q156.251 722.075 153.612 722.955 L153.612 718.788 Q156.274 718.048 158.589 717.677 Q160.927 717.307 162.987 717.307 Q168.311 717.307 171.413 719.738 Q174.514 722.145 174.514 726.265 Q174.514 729.136 172.871 731.126 Q171.227 733.094 168.195 733.858 Z" fill="#000000" fill-rule="evenodd" fill-opacity="1" /><path clip-path="url(#clip370)" d="M184.19 746.612 L189.075 746.612 L189.075 752.492 L184.19 752.492 L184.19 746.612 Z" fill="#000000" fill-rule="evenodd" fill-opacity="1" /><path clip-path="url(#clip370)" d="M209.26 721.011 Q205.649 721.011 203.82 724.575 Q202.014 728.117 202.014 735.247 Q202.014 742.353 203.82 745.918 Q205.649 749.46 209.26 749.46 Q212.894 749.46 214.699 745.918 Q216.528 742.353 216.528 735.247 Q216.528 728.117 214.699 724.575 Q212.894 721.011 209.26 721.011 M209.26 717.307 Q215.07 717.307 218.125 721.913 Q221.204 726.497 221.204 735.247 Q221.204 743.973 218.125 748.58 Q215.07 753.163 209.26 753.163 Q203.449 753.163 200.371 748.58 Q197.315 743.973 197.315 735.247 Q197.315 726.497 200.371 721.913 Q203.449 717.307 209.26 717.307 Z" fill="#000000" fill-rule="evenodd" fill-opacity="1" /><path clip-path="url(#clip370)" d="M115.256 391.679 L144.931 391.679 L144.931 395.615 L115.256 395.615 L115.256 391.679 Z" fill="#000000" fill-rule="evenodd" fill-opacity="1" /><path clip-path="url(#clip370)" d="M159.052 404.573 L175.371 404.573 L175.371 408.508 L153.427 408.508 L153.427 404.573 Q156.089 401.818 160.672 397.189 Q165.278 392.536 166.459 391.193 Q168.704 388.67 169.584 386.934 Q170.487 385.175 170.487 383.485 Q170.487 380.73 168.542 378.994 Q166.621 377.258 163.519 377.258 Q161.32 377.258 158.866 378.022 Q156.436 378.786 153.658 380.337 L153.658 375.615 Q156.482 374.48 158.936 373.902 Q161.39 373.323 163.427 373.323 Q168.797 373.323 171.991 376.008 Q175.186 378.693 175.186 383.184 Q175.186 385.314 174.376 387.235 Q173.589 389.133 171.482 391.726 Q170.903 392.397 167.802 395.615 Q164.7 398.809 159.052 404.573 Z" fill="#000000" fill-rule="evenodd" fill-opacity="1" /><path clip-path="url(#clip370)" d="M185.186 402.628 L190.07 402.628 L190.07 408.508 L185.186 408.508 L185.186 402.628 Z" fill="#000000" fill-rule="evenodd" fill-opacity="1" /><path clip-path="url(#clip370)" d="M200.301 373.948 L218.658 373.948 L218.658 377.883 L204.584 377.883 L204.584 386.355 Q205.602 386.008 206.621 385.846 Q207.639 385.661 208.658 385.661 Q214.445 385.661 217.824 388.832 Q221.204 392.003 221.204 397.42 Q221.204 402.999 217.732 406.101 Q214.26 409.179 207.94 409.179 Q205.764 409.179 203.496 408.809 Q201.25 408.439 198.843 407.698 L198.843 402.999 Q200.926 404.133 203.149 404.689 Q205.371 405.244 207.848 405.244 Q211.852 405.244 214.19 403.138 Q216.528 401.031 216.528 397.42 Q216.528 393.809 214.19 391.703 Q211.852 389.596 207.848 389.596 Q205.973 389.596 204.098 390.013 Q202.246 390.429 200.301 391.309 L200.301 373.948 Z" fill="#000000" fill-rule="evenodd" fill-opacity="1" /><path clip-path="url(#clip370)" d="M114.26 47.6955 L143.936 47.6955 L143.936 51.6306 L114.26 51.6306 L114.26 47.6955 Z" fill="#000000" fill-rule="evenodd" fill-opacity="1" /><path clip-path="url(#clip370)" d="M158.056 60.5889 L174.376 60.5889 L174.376 64.5241 L152.431 64.5241 L152.431 60.5889 Q155.093 57.8343 159.677 53.2047 Q164.283 48.552 165.464 47.2094 Q167.709 44.6862 168.589 42.9501 Q169.491 41.1909 169.491 39.5011 Q169.491 36.7465 167.547 35.0104 Q165.626 33.2743 162.524 33.2743 Q160.325 33.2743 157.871 34.0381 Q155.44 34.802 152.663 36.3529 L152.663 31.6308 Q155.487 30.4965 157.94 29.9178 Q160.394 29.3391 162.431 29.3391 Q167.802 29.3391 170.996 32.0243 Q174.19 34.7094 174.19 39.2002 Q174.19 41.3298 173.38 43.2511 Q172.593 45.1492 170.487 47.7418 Q169.908 48.4131 166.806 51.6306 Q163.704 54.8251 158.056 60.5889 Z" fill="#000000" fill-rule="evenodd" fill-opacity="1" /><path clip-path="url(#clip370)" d="M184.19 58.6445 L189.075 58.6445 L189.075 64.5241 L184.19 64.5241 L184.19 58.6445 Z" fill="#000000" fill-rule="evenodd" fill-opacity="1" /><path clip-path="url(#clip370)" d="M209.26 33.0428 Q205.649 33.0428 203.82 36.6076 Q202.014 40.1492 202.014 47.2788 Q202.014 54.3853 203.82 57.9501 Q205.649 61.4917 209.26 61.4917 Q212.894 61.4917 214.699 57.9501 Q216.528 54.3853 216.528 47.2788 Q216.528 40.1492 214.699 36.6076 Q212.894 33.0428 209.26 33.0428 M209.26 29.3391 Q215.07 29.3391 218.125 33.9456 Q221.204 38.5289 221.204 47.2788 Q221.204 56.0056 218.125 60.6121 Q215.07 65.1954 209.26 65.1954 Q203.449 65.1954 200.371 60.6121 Q197.315 56.0056 197.315 47.2788 Q197.315 38.5289 200.371 33.9456 Q203.449 29.3391 209.26 29.3391 Z" fill="#000000" fill-rule="evenodd" fill-opacity="1" /><path clip-path="url(#clip370)" d="M42.6302 905.573 Q37.3484 905.573 33.4515 900.517 Q29.5546 895.428 28.9749 888.375 L25.1424 888.375 Q23.1778 888.375 22.6626 889.599 Q22.1151 890.823 22.1151 895.557 L22.1151 896.813 L20.0539 896.813 Q20.2471 891.145 20.2471 885.606 Q20.2471 880.066 20.0539 874.398 L22.1151 874.398 L22.1151 875.59 Q22.1151 880.195 22.6303 881.515 Q23.1456 882.836 25.1424 882.836 L28.9749 882.836 Q29.4902 875.654 33.3871 870.469 Q37.284 865.284 42.6302 865.284 Q47.5899 865.284 51.6156 870.243 Q55.6091 875.171 56.2211 882.836 L60.0214 882.836 Q61.9859 882.836 62.5334 881.612 Q63.0809 880.388 63.0809 875.654 L63.0809 874.398 L65.1099 874.398 Q64.9166 880.066 64.9166 885.606 Q64.9166 891.145 65.1099 896.813 L63.0809 896.813 L63.0809 895.557 Q63.0809 890.887 62.5334 889.631 Q61.9537 888.375 60.0214 888.375 L56.2211 888.375 Q55.6414 895.493 51.7122 900.549 Q47.7831 905.573 42.6302 905.573 M42.5658 899.003 Q53.1937 899.003 54.6108 888.375 L30.553 888.375 Q31.2937 893.464 34.2889 896.234 Q37.284 899.003 42.5658 899.003 M54.6752 882.836 Q53.0971 871.95 42.6302 871.95 Q39.2164 871.95 36.8009 872.981 Q34.3855 873.979 33.1295 875.879 Q31.8734 877.747 31.3581 879.293 Q30.8106 880.839 30.4886 882.836 L54.6752 882.836 Z" fill="#000000" fill-rule="evenodd" fill-opacity="1" /><path clip-path="url(#clip370)" d="M80.6653 858.427 Q80.3432 858.427 79.6347 858.17 L17.413 834.885 Q17.3486 834.885 16.9943 834.724 Q16.6401 834.563 16.4146 834.466 Q16.157 834.369 15.9637 834.176 Q15.7705 833.951 15.7705 833.693 Q15.7705 833.049 16.5756 833.049 Q16.6401 833.049 17.413 833.242 L79.6991 856.592 Q80.8263 856.978 81.1484 857.236 Q81.4705 857.461 81.4705 857.848 Q81.4705 858.427 80.6653 858.427 Z" fill="#000000" fill-rule="evenodd" fill-opacity="1" /><path clip-path="url(#clip370)" d="M48.6205 825.763 Q37.4772 825.763 28.4918 821.609 Q24.7237 819.837 21.5676 817.357 Q18.4114 814.878 17.0265 813.235 Q15.6417 811.593 15.6417 811.142 Q15.6417 810.498 16.2858 810.465 Q16.6078 810.465 17.413 811.335 Q28.2342 821.963 48.6205 821.931 Q69.0712 821.931 79.4737 811.593 Q80.6009 810.465 80.9552 810.465 Q81.5993 810.465 81.5993 811.142 Q81.5993 811.593 80.2788 813.171 Q78.9584 814.749 75.931 817.196 Q72.9037 819.644 69.2 821.415 Q60.2146 825.763 48.6205 825.763 Z" fill="#000000" fill-rule="evenodd" fill-opacity="1" /><path clip-path="url(#clip370)" d="M19.2809 757.568 L36.0924 761.723 Q37.1552 762.013 37.284 762.206 Q37.4128 762.367 37.4128 762.882 Q37.4128 763.881 36.7365 763.881 Q36.6721 763.881 35.8347 763.784 Q34.9652 763.688 33.3871 763.688 Q27.5578 763.688 24.1118 766.522 Q20.6658 769.324 20.6658 774.316 Q20.6658 778.985 23.1134 783.462 Q25.5611 787.939 29.1681 790.805 Q32.1311 793.22 35.7381 794.895 Q39.3452 796.538 42.5014 797.214 Q45.6253 797.89 47.5255 798.148 Q49.4256 798.373 50.6494 798.373 Q54.2565 798.373 57.0584 797.214 Q59.8281 796.054 61.4062 794.122 Q62.9843 792.158 63.7572 789.903 Q64.5302 787.617 64.5302 785.137 Q64.5302 784.203 64.4013 783.076 Q64.2725 781.948 63.7894 780.209 Q63.3063 778.438 62.5012 776.989 Q61.6961 775.507 60.1502 774.219 Q58.6043 772.898 56.5431 772.383 Q51.2936 770.998 50.5206 770.998 Q49.8765 770.998 49.6511 771.385 Q49.4256 771.771 49.2646 773.059 L49.1358 776.538 Q49.1358 776.602 49.1358 776.699 Q49.1358 777.311 49.1358 777.568 Q49.1036 777.826 49.0392 778.116 Q48.9747 778.373 48.8459 778.47 Q48.6849 778.534 48.4272 778.534 Q47.8153 778.534 47.5255 778.277 Q47.2034 778.019 47.1712 777.794 Q47.1068 777.568 47.1068 777.15 L47.3 767.907 Q47.3 767.166 47.2034 764.461 Q47.1068 761.755 47.1068 760.982 Q47.1068 760.113 47.8153 760.113 Q49.1358 760.113 49.1358 761.176 Q49.168 762.238 49.2002 762.786 Q49.2002 763.333 49.3612 763.881 Q49.5222 764.396 49.6511 764.589 Q49.7477 764.783 50.2308 765.04 Q50.6817 765.298 51.0681 765.394 Q51.4224 765.491 52.3241 765.717 Q52.9039 765.845 53.9989 766.167 Q55.0939 766.457 55.6736 766.586 L60.7621 767.842 Q64.5302 768.712 64.7878 768.969 Q65.0455 769.098 65.0455 769.42 Q65.0455 769.903 63.6284 770.934 Q62.2113 771.932 60.9553 772.383 Q61.8249 773.188 62.3402 773.704 Q62.8233 774.219 63.5962 775.411 Q64.3691 776.57 64.9811 778.116 Q66.5591 781.884 66.5591 786.361 Q66.5591 794.348 61.5028 799.372 Q56.4143 804.396 48.4917 804.396 Q42.8878 804.396 37.3806 801.819 Q31.8734 799.243 27.7833 795.153 Q23.6931 791.063 21.1489 785.652 Q18.6046 780.241 18.6046 774.831 Q18.6046 772.77 19.1521 770.934 Q19.6996 769.098 20.3759 768.003 Q21.0523 766.876 22.0506 765.878 Q23.0168 764.879 23.4677 764.557 Q23.9186 764.203 24.4661 763.881 L19.4098 759.275 Q18.6046 758.47 18.6046 758.277 Q18.6046 757.891 18.8301 757.729 Q19.0555 757.568 19.2809 757.568 Z" fill="#000000" fill-rule="evenodd" fill-opacity="1" /><path clip-path="url(#clip370)" d="M20.7946 686.985 Q21.7286 686.985 21.9218 687.403 Q22.1151 687.79 22.1151 689.078 Q22.1151 690.592 22.2439 691.526 Q22.3405 692.46 22.5015 693.039 Q22.6303 693.619 23.0812 693.973 Q23.5321 694.295 23.9186 694.424 Q24.2728 694.553 25.1424 694.779 L60.279 703.538 Q61.4706 703.861 61.8893 703.861 Q62.308 703.861 62.5656 703.603 Q62.8233 703.313 62.9521 702.605 Q63.0487 701.896 63.0809 701.348 Q63.0809 700.769 63.0809 699.577 Q63.0809 698.096 63.3386 697.87 Q63.4996 697.741 63.7894 697.741 Q64.4013 697.741 64.7234 697.999 Q65.0133 698.257 65.0777 698.482 Q65.1099 698.675 65.1099 698.997 Q65.1099 700.35 65.0133 703.12 Q64.9166 705.89 64.9166 707.242 L65.1099 715.422 Q65.1099 716.389 64.3047 716.389 Q63.6928 716.389 63.4352 716.131 Q63.1453 715.873 63.1131 715.583 Q63.0809 715.294 63.0809 714.553 Q63.0809 711.912 62.7911 710.785 Q62.5012 709.625 61.9859 709.303 Q61.4384 708.949 59.9569 708.563 L22.1795 699.126 L22.1795 699.191 L63.9183 725.825 L64.2081 726.018 Q64.4658 726.211 64.5624 726.276 Q64.6268 726.34 64.82 726.533 Q64.9811 726.695 65.0455 726.888 Q65.1099 727.049 65.1099 727.274 Q65.1099 727.661 64.8522 727.886 Q64.5946 728.079 64.4013 728.144 Q64.1759 728.176 63.5962 728.273 L22.6948 733.941 L22.6948 734.005 L58.6365 742.991 Q59.6349 743.248 60.1502 743.248 Q61.4706 743.248 62.2758 742.314 Q63.0487 741.348 63.0809 738.772 Q63.0809 737.58 63.7894 737.58 Q65.1099 737.58 65.1099 738.772 Q65.1099 739.867 65.0133 742.153 Q64.9166 744.44 64.9166 745.567 Q64.9166 746.662 65.0133 748.884 Q65.1099 751.074 65.1099 752.137 Q65.1099 753.071 64.3047 753.071 Q63.0809 753.071 63.0809 751.879 Q63.0165 749.947 62.63 748.627 Q62.2436 747.306 61.5028 746.566 Q60.7621 745.793 60.0214 745.438 Q59.2484 745.052 58.1212 744.762 L24.5305 736.388 Q23.4677 736.131 23.3067 736.131 Q22.7592 736.131 22.5659 736.453 Q22.3405 736.743 22.2439 737.58 Q22.1151 739.19 22.1151 740.414 Q22.1151 741.219 22.0828 741.541 Q22.0506 741.831 21.8896 742.089 Q21.6964 742.314 21.3099 742.314 Q20.698 742.314 20.4403 742.057 Q20.1505 741.767 20.1183 741.445 Q20.0539 741.123 20.0539 740.35 L20.0539 731.3 Q20.0539 729.98 20.2793 729.69 Q20.4726 729.4 21.5676 729.271 L58.8941 724.118 L21.3099 700.028 Q20.3759 699.416 20.2149 699.094 Q20.0539 698.772 20.0539 697.484 L20.0539 688.756 Q20.0539 688.047 20.0861 687.758 Q20.1183 687.468 20.2793 687.242 Q20.4403 686.985 20.7946 686.985 Z" fill="#000000" fill-rule="evenodd" fill-opacity="1" /><path clip-path="url(#clip370)" d="M57.0324 680.578 L55.5896 680.578 Q55.5896 675.032 52.6363 672.169 Q52.6363 671.38 52.8166 671.245 Q52.997 671.109 53.8311 671.109 L79.7343 671.109 Q81.1095 671.109 81.5378 670.433 Q81.9662 669.757 81.9662 666.804 L81.9662 665.338 L83.3864 665.338 Q83.2512 666.961 83.2512 672.823 Q83.2512 678.684 83.3864 680.285 L81.9662 680.285 L81.9662 678.82 Q81.9662 675.911 81.5604 675.212 Q81.132 674.514 79.7343 674.514 L55.815 674.514 Q57.0324 676.926 57.0324 680.578 Z" fill="#000000" fill-rule="evenodd" fill-opacity="1" /><path clip-path="url(#clip370)" d="M80.6653 658.444 Q80.3432 658.444 79.6347 658.187 L17.413 634.902 Q17.3486 634.902 16.9943 634.741 Q16.6401 634.58 16.4146 634.483 Q16.157 634.386 15.9637 634.193 Q15.7705 633.968 15.7705 633.71 Q15.7705 633.066 16.5756 633.066 Q16.6401 633.066 17.413 633.259 L79.6991 656.609 Q80.8263 656.995 81.1484 657.253 Q81.4705 657.478 81.4705 657.865 Q81.4705 658.444 80.6653 658.444 Z" fill="#000000" fill-rule="evenodd" fill-opacity="1" /><path clip-path="url(#clip370)" d="M55.6736 595.571 Q59.8281 596.441 62.2113 597.568 Q65.8506 599.371 65.8506 602.431 Q65.8506 604.75 64.4336 606.392 Q63.0165 608.035 60.8909 608.421 Q65.8506 612.64 65.8506 617.02 Q65.8506 620.885 62.9199 623.333 Q59.9569 625.78 55.2871 625.78 Q50.585 625.78 46.0762 623.461 Q41.5674 621.11 38.7655 617.407 Q35.9636 613.703 35.9636 609.903 Q35.9636 605.877 40.1825 603.816 Q39.0231 603.655 38.1536 602.914 Q37.284 602.173 37.284 601.046 Q37.284 600.177 37.7671 599.661 Q38.218 599.146 39.0553 599.146 Q39.474 599.146 41.3097 599.597 L50.5206 601.98 L56.4787 603.429 Q58.6687 603.977 59.4739 604.138 Q60.279 604.267 61.3418 604.267 Q64.3691 604.267 64.3691 602.302 Q64.3691 601.336 63.7572 600.563 Q63.1453 599.79 61.8571 599.178 Q60.5688 598.566 59.3772 598.18 Q58.1534 597.793 56.2211 597.278 Q55.4481 597.117 55.2549 596.988 Q55.0294 596.827 55.0294 596.376 Q55.0294 595.571 55.6736 595.571 M43.2099 604.621 Q42.92 604.621 42.1149 604.846 Q41.3097 605.072 40.1825 605.587 Q39.0553 606.102 38.2502 607.23 Q37.4128 608.325 37.4128 609.806 Q37.4128 611.803 39.1197 613.896 Q40.8267 615.957 43.7252 617.471 Q46.044 618.63 50.9071 619.887 Q55.7702 621.11 58.1856 621.11 Q59.6671 621.11 60.9875 620.788 Q62.2758 620.434 63.3386 619.436 Q64.3691 618.437 64.3691 616.891 Q64.3691 613.123 59.6993 609.42 Q58.8941 608.711 58.5721 608.55 Q58.2178 608.357 57.2516 608.099 L44.3371 604.814 Q43.3709 604.621 43.2099 604.621 Z" fill="#000000" fill-rule="evenodd" fill-opacity="1" /><path clip-path="url(#clip370)" d="M80.9552 590.178 Q80.6331 590.178 79.828 589.341 Q69.0068 578.713 48.6205 578.713 Q28.1698 578.713 17.8317 588.922 Q16.6401 590.178 16.2858 590.178 Q15.6417 590.178 15.6417 589.534 Q15.6417 589.083 16.9621 587.505 Q18.2826 585.895 21.3099 583.479 Q24.3373 581.032 28.0409 579.228 Q37.0264 574.88 48.6205 574.88 Q59.7637 574.88 68.7491 579.035 Q72.5172 580.806 75.6734 583.286 Q78.8296 585.766 80.2144 587.408 Q81.5993 589.051 81.5993 589.534 Q81.5993 590.178 80.9552 590.178 Z" fill="#000000" fill-rule="evenodd" fill-opacity="1" /><polyline clip-path="url(#clip372)" style="stroke:#009af9; stroke-linecap:butt; stroke-linejoin:round; stroke-width:4; stroke-opacity:1; fill:none" points="
  316.512,944.469 336.481,891.272 356.45,839.971 376.419,790.609 396.388,743.234 416.357,697.901 436.326,654.669 456.295,613.605 476.264,574.782 496.234,538.281 
  516.203,504.197 536.172,472.631 556.141,443.701 576.11,417.541 596.079,394.3 616.048,374.152 636.017,357.295 655.986,343.957 675.955,334.406 695.924,328.952 
  715.893,327.96 735.862,331.864 755.831,341.18 775.8,356.531 795.769,378.671 815.738,408.529 835.707,447.257 855.676,496.302 875.645,557.512 895.614,633.28 
  915.584,726.769 935.553,842.24 955.522,985.586 975.491,1165.19 995.46,1393.41 1015.43,1689.24 1035.4,2083.48 1055.37,2629.6 1075.34,3429.35 1095.3,4703.12 
  1115.27,7034.23 1135.24,12639.2 1155.21,44421.4 1175.18,33070.1 1195.15,11401.4 1215.12,6590.33 1235.09,4478.5 1255.06,3296.29 1275.03,2544.69 1295,2028.58 
  1314.96,1656.06 1334.93,1378.29 1354.9,1167 1374.87,1004.86 1394.84,880.765 1414.81,787.447 1434.78,720.167 1454.75,675.969 1474.72,653.284 1494.69,651.766 
  1514.65,672.317 1534.62,717.315 1554.59,791.151 1574.56,901.281 1594.53,1060.3 1614.5,1290.23 1634.47,1632.44 1654.44,2173.39 1674.41,3127.7 1694.38,5211.59 
  1714.35,13153.8 1734.31,33585.8 1754.28,7101.34 1774.25,3795.6 1794.22,2507.8 1814.19,1827.12 1834.16,1410.31 1854.13,1132.47 1874.1,937.263 1894.07,795.491 
  1914.04,690.521 1934,612.164 1953.97,553.83 1973.94,511.058 1993.91,480.724 2013.88,460.566 2033.85,448.911 2053.82,444.488 2073.79,446.317 2093.76,453.628 
  2113.73,465.806 2133.7,482.356 2153.66,502.872 2173.63,527.02 2193.6,554.52 2213.57,585.138 2233.54,618.675 2253.51,654.961 2273.48,693.848 2293.45,735.212 
  
  "/>
</svg>
